<?xml version="1.0" encoding="UTF-8" standalone="no"?>
<svg
   xmlns:dc="http://purl.org/dc/elements/1.1/"
   xmlns:cc="http://creativecommons.org/ns#"
   xmlns:rdf="http://www.w3.org/1999/02/22-rdf-syntax-ns#"
   xmlns:svg="http://www.w3.org/2000/svg"
   xmlns="http://www.w3.org/2000/svg"
   xmlns:sodipodi="http://sodipodi.sourceforge.net/DTD/sodipodi-0.dtd"
   xmlns:inkscape="http://www.inkscape.org/namespaces/inkscape"
   width="1920"
   height="1080"
   viewBox="0 0 508 285.75001"
   version="1.1"
   id="svg214"
   inkscape:version="1.0.1 (3bc2e813f5, 2020-09-07)"
   sodipodi:docname="about_bgrd.svg">
  <defs
     id="defs208" />
  <sodipodi:namedview
     id="base"
     pagecolor="#ffffff"
     bordercolor="#666666"
     borderopacity="1.0"
     inkscape:pageopacity="0.0"
     inkscape:pageshadow="2"
     inkscape:zoom="0.70000002"
     inkscape:cx="1045.6958"
     inkscape:cy="674.23694"
     inkscape:document-units="px"
     inkscape:current-layer="layer1"
     inkscape:document-rotation="0"
     showgrid="false"
     inkscape:window-width="1267"
     inkscape:window-height="816"
     inkscape:window-x="2582"
     inkscape:window-y="241"
     inkscape:window-maximized="0"
     units="px" />
  <metadata
     id="metadata211">
    <rdf:RDF>
      <cc:Work
         rdf:about="">
        <dc:format>image/svg+xml</dc:format>
        <dc:type
           rdf:resource="http://purl.org/dc/dcmitype/StillImage" />
        <dc:title />
      </cc:Work>
    </rdf:RDF>
  </metadata>
  <g
     inkscape:label="Layer 1"
     inkscape:groupmode="layer"
     id="layer1">
    <rect
       style="fill:#242424;fill-opacity:1;fill-rule:nonzero;stroke:none;stroke-width:0.678656;stroke-linecap:round;stroke-linejoin:round;stroke-miterlimit:4;stroke-dasharray:none;stroke-dashoffset:0;stroke-opacity:1;paint-order:normal"
       id="rect9"
       width="508"
       height="285.75"
       x="-1.9555557e-06"
       y="-1.1000001e-06"
       inkscape:export-xdpi="25.4"
       inkscape:export-ydpi="25.4" />
    <path
       style="fill:#646464;fill-opacity:1;stroke-width:0.566169"
       d="m 100.96295,277.16462 c 0.70728,-0.61365 3.98248,-2.5517 7.27858,-4.30668 3.29583,-1.75514 7.12573,-3.93933 8.51056,-4.85333 13.48973,-8.90676 15.79324,-10.57377 16.2706,-11.77461 0.28986,-0.72802 0.52986,-1.37607 0.53486,-1.43983 0.004,-0.0619 -1.75179,-0.2336 -3.9038,-0.37809 -2.15191,-0.14431 -5.55188,-0.67858 -7.55563,-1.18732 -2.00381,-0.5089 -4.3008,-0.98523 -5.10473,-1.05847 l -1.46198,-0.13332 0.39962,1.63428 c 0.85005,3.47641 -0.51916,5.24806 -4.37986,5.66684 -4.25585,0.46157 -6.1142,-2.07795 -3.8309,-5.23581 0.70413,-0.97253 1.14758,-1.83938 0.9887,-1.92469 -0.16031,-0.0861 -3.63845,0.0631 -7.73015,0.33081 -8.674229,0.56801 -9.578972,0.51731 -9.029782,-0.50572 0.218678,-0.40733 0.210873,-1.20071 -0.01746,-1.76334 -0.575413,-1.41814 0.304506,-2.80961 2.124072,-3.35799 1.843858,-0.55559 2.834664,-0.10732 3.319886,1.50236 0.324567,1.07698 0.204258,1.30649 -1.182661,2.25663 -0.848704,0.58192 -1.336305,1.16928 -1.083043,1.30522 0.252833,0.13576 3.355581,-0.0623 6.894798,-0.4403 3.53881,-0.37814 8.8393,-0.64101 11.77846,-0.58436 5.66928,0.10894 7.42354,-0.67243 5.4805,-2.44197 -1.4061,-1.2801 -2.12765,-4.64161 -1.4837,-6.91131 0.37411,-1.31768 0.93461,-1.95596 2.27018,-2.58768 0.97556,-0.46122 2.23871,-1.34877 2.80651,-1.97228 0.83431,-0.91652 1.10709,-0.94957 1.42243,-0.1723 0.21458,0.52861 1.7377,1.75432 3.38478,2.72325 3.92203,2.30706 4.37687,3.99891 2.01444,7.48996 -1.02466,1.51476 -1.99126,2.37368 -2.70352,2.40432 -3.68805,0.15811 -8.14609,1.95995 -5.43819,2.19795 0.5905,0.0519 3.60886,0.47834 6.70732,0.94774 3.81066,0.57721 6.20014,0.61044 7.38404,0.10278 1.43265,-0.6138 1.96985,-0.55036 2.95863,0.35018 1.05497,0.96012 1.21848,0.95832 1.28788,-0.0145 0.14195,-1.99038 1.56972,-3.85818 3.42546,-4.48124 2.33058,-0.78249 3.66604,-0.038 4.49197,2.50325 0.65505,2.01688 1.75682,2.57624 2.46639,1.25456 0.5217,-0.97181 3.05385,-1.16808 3.97951,-0.30841 0.49633,0.46076 1.85569,0.41507 3.784,-0.12788 3.64193,-1.02568 9.44575,-5.74569 10.05834,-8.18079 1.19912,-4.7649 1.29008,-4.8633 5.29392,-5.71296 2.06941,-0.43913 7.29154,-2.14429 11.60428,-3.78917 6.35219,-2.42227 8.39965,-3.49875 10.77944,-5.66603 2.37689,-2.16519 3.41072,-2.70907 5.41629,-2.85036 2.68603,-0.18967 7.34356,1.19031 7.405,2.19345 0.0214,0.34028 -1.51392,1.06209 -3.41005,1.6046 -1.8962,0.5426 -5.1828,1.93476 -7.30336,3.0934 -2.12068,1.15887 -5.66417,2.78458 -7.87439,3.61275 -3.61022,1.35258 -8.7108,4.06495 -12.61504,6.70851 -0.77981,0.52842 -2.35509,2.14069 -3.5006,3.58298 -1.14533,1.44225 -3.03334,3.81363 -4.19579,5.26924 -1.52159,1.90569 -2.74711,2.84572 -4.37692,3.35722 -3.21427,1.00875 -5.71545,2.58773 -6.54849,4.13456 -0.57904,1.0786 -0.46297,1.54919 0.61798,2.47595 1.45598,1.2488 1.74766,2.85911 1.12121,6.1925 -0.38588,2.0523 -0.53817,2.21023 -2.96384,3.06753 -2.78228,0.98369 -3.89051,0.69808 -4.77658,-1.23092 -0.91829,-1.99967 -1.30427,-1.85172 -1.54149,0.59023 -0.30197,3.10473 -1.33212,4.03527 -5.33836,4.82132 -3.17794,0.62338 -3.55953,0.56332 -5.48371,-0.86395 -2.17733,-1.61493 -3.40706,-2.03292 -3.80526,-1.29124 -0.13147,0.2449 -0.41616,0.35009 -0.63277,0.23381 -0.21638,-0.11618 -0.0534,-0.82378 0.36239,-1.57268 0.5206,-0.92851 0.4962,-1.69291 -0.0657,-2.41046 -0.67407,-0.86064 -0.61459,-1.31938 0.33045,-2.55355 1.23383,-1.61097 0.99099,-2.20759 -0.5915,-1.45016 -0.85115,0.40767 -1.12441,0.14089 -2.15504,-2.10294 -0.64886,-1.41325 -1.32345,-2.65481 -1.49882,-2.75868 -0.37896,-0.22704 -7.50344,4.58566 -7.90932,5.34171 -0.15482,0.28845 0.05,0.70247 0.45517,0.92001 1.15864,0.62198 1.13922,3.61828 -0.0375,5.8102 -1.30654,2.43374 -4.04025,3.56772 -6.02817,2.50049 -1.46425,-0.78607 -2.25681,-2.95505 -1.55638,-4.25979 0.24616,-0.45855 0.23748,-0.94641 -0.019,-1.08418 -0.51832,-0.27824 -6.26959,2.78802 -12.21172,6.51084 -4.0406,2.53127 -6.504452,3.16746 -4.06386,1.0491 z m 42.25359,-15.21486 c 0.95274,-0.38666 0.96136,-0.49048 0.0629,-0.76943 -0.57026,-0.17894 -1.28217,-0.0921 -1.5806,0.18929 -0.77403,0.73106 0.21471,1.10873 1.518,0.57943 z m 8.17054,3.81769 c 0.22085,-0.41145 0.19029,-0.86174 -0.068,-1.00039 -0.62881,-0.33757 -1.49749,0.19958 -1.31291,0.81212 0.26019,0.8633 0.9667,0.95977 1.38088,0.18827 z m -7.78211,-5.85283 c 0.13158,-0.24512 0.0331,-0.55621 -0.21895,-0.69144 -0.25191,-0.13525 -0.76014,-0.59756 -1.13048,-1.02557 -0.57788,-0.67017 -0.6726,-0.5895 -0.67426,0.57773 0,1.29805 1.48825,2.13665 2.02332,1.13999 z m 7.11033,3.72535 c 0.67355,-0.43351 1.27461,-1.02393 1.33548,-1.31222 0.0596,-0.28924 0.49293,-0.5469 0.9574,-0.57589 1.8098,-0.11028 0.43191,-1.04627 -1.42819,-0.97063 -1.53213,0.063 -2.06058,-0.13379 -2.36281,-0.87889 -0.21405,-0.52779 -0.61637,-0.89131 -0.89379,-0.80788 -0.95625,0.28856 -0.94816,0.98494 0.0177,1.50336 1.16084,0.6232 1.35428,1.76866 0.27933,1.65272 -0.57742,-0.0623 -0.65016,0.14422 -0.29988,0.84796 0.66964,1.34314 1.02277,1.42286 2.3939,0.54039 z m -3.39082,-4.29214 c 0.95287,-1.02585 1.2632,-2.47267 0.60383,-2.82663 -0.24508,-0.13157 -0.67672,0.19132 -0.95927,0.71766 -0.28252,0.52631 -0.84005,1.23912 -1.24015,1.58342 -0.462,0.39852 -0.45501,0.77216 0.0175,1.02564 0.40883,0.2195 1.11916,-0.006 1.57842,-0.50009 z m 11.08316,-2.54474 c 1.28018,-1.62015 1.28476,-1.72181 0.0749,-1.72331 -1.85319,-0.003 -2.30819,0.39997 -2.54928,2.25541 -0.26014,1.99862 0.62494,1.80832 2.47438,-0.5321 z m -55.91228,13.43066 c 0.0316,-3.15137 4.2536,-4.56123 5.37591,-1.79504 0.52194,1.28696 0.0443,2.16522 -1.90217,3.50203 -1.95967,1.343 -3.4948,0.58859 -3.47189,-1.70535 z m 4.2115,-0.6196 c 0.0554,-0.4831 -0.12718,-0.42876 -0.46299,0.13967 -0.30472,0.51393 -0.34481,0.87186 -0.0897,0.79532 0.25498,-0.0771 0.50298,-0.49795 0.55301,-0.93486 z m 81.17309,-9.63775 c 5.37797,-4.33579 9.78797,-7.61828 13.22628,-9.84475 2.04999,-1.32739 3.66726,-2.61266 3.5937,-2.85642 -0.0733,-0.24339 -0.93517,-0.41418 -1.91473,-0.37955 -2.61181,0.0927 -13.55228,-0.97025 -14.30245,-1.38985 -0.35685,-0.19158 0.14573,-0.48874 1.11024,-0.64659 l 1.75342,-0.28739 -1.08709,-1.25272 c -1.38689,-1.59771 -0.68268,-2.9537 1.94625,-3.74505 2.40421,-0.72445 4.34946,0.17664 5.2618,2.43721 l 0.6509,1.61314 -1.70416,0.34885 c -0.93744,0.1918 -1.4361,0.50258 -1.10832,0.69036 0.59434,0.34133 6.70701,1.17845 7.29838,1.00057 0.17063,-0.0505 0.0122,-0.96679 -0.35409,-2.03348 -0.94473,-2.75244 0.50654,-5.32419 3.51739,-6.2307 3.77812,-1.13864 6.53921,1.37531 5.29165,4.81782 -0.28351,0.78214 -0.17347,1.43519 0.26294,1.56088 0.47456,0.13545 0.49043,0.44056 0.0434,0.82643 -0.91974,0.79317 -0.8863,0.80272 2.63417,0.74295 2.9904,-0.0508 4.14103,-0.61365 2.76434,-1.35273 -0.7919,-0.42513 -1.97472,-6.55085 -1.4527,-7.52327 0.17765,-0.33091 1.49794,-1.17075 2.9339,-1.86669 2.26457,-1.09736 2.8602,-1.13133 4.48894,-0.25696 l 1.87823,1.00832 1.39737,-2.76407 c 0.76681,-1.52117 1.33485,-3.45713 1.25897,-4.30414 -0.20842,-2.33169 -4.94718,-18.27729 -5.81626,-19.57077 -0.41873,-0.62316 -1.61647,-2.04997 -2.66218,-3.17072 -4.32601,-4.63611 -6.33594,-9.81597 -4.1522,-10.70219 0.48337,-0.19576 1.19605,-0.18607 1.58372,0.0222 0.38756,0.20807 1.43748,0.31409 2.33334,0.2358 l 1.62859,-0.14264 -0.18971,-2.95799 c -0.26982,-4.20362 -2.98273,-13.33781 -4.32454,-14.55952 -1.70593,-1.55348 -5.67118,-2.2611 -11.84812,-2.11487 -3.05605,0.0722 -6.36466,0.0877 -7.35288,0.0344 -1.52516,-0.082 -1.98167,0.21365 -3.01807,1.95469 -0.92806,1.55774 -1.73109,2.18408 -3.34039,2.60316 -2.17318,0.56568 -2.83094,0.27246 -6.18676,-2.76106 -0.83074,-0.7511 -1.24018,-0.89892 -1.21187,-0.43924 0.0753,1.24145 4.05114,4.39389 5.83332,4.62585 2.67566,0.34797 3.62181,2.09012 3.33437,6.13383 -0.1323,1.85719 -0.37159,2.28193 -2.36078,4.19476 -2.88375,2.7705 -3.45559,2.91155 -6.746,1.66224 -2.47848,-0.94112 -2.81551,-1.23782 -3.27208,-2.88223 -0.27974,-1.00836 -0.53332,-2.40782 -0.56314,-3.10997 -0.059,-1.38864 -0.34962,-1.25302 -2.36215,1.10262 -1.60236,1.87545 -4.794,1.41331 -8.77887,-1.27077 -3.05657,-2.05901 -3.21673,-2.26655 -2.40133,-3.11546 0.6649,-0.69239 0.66082,-0.80079 -0.0138,-0.45281 -0.74422,0.38338 -0.96816,0.15944 -1.38613,-1.38647 -1.09103,-4.03386 -1.1557,-5.15162 -0.39899,-6.87631 0.43347,-0.98814 0.88985,-2.33897 1.01442,-3.00231 0.16142,-0.86042 0.44603,-1.08756 0.99038,-0.79536 0.4203,0.22564 1.22965,0.10065 1.79883,-0.27744 1.47812,-0.98288 1.52574,-1.29088 0.23593,-1.53252 -1.75827,-0.32988 -1.46733,-3.69673 0.67421,-7.80463 l 1.76138,-3.37619 3.6676,-0.93861 c 2.01713,-0.51625 3.92623,-0.79991 4.24238,-0.63018 0.31613,0.1697 0.80092,1.15295 1.07694,2.18458 0.6011,2.24611 1.14694,2.65161 1.83763,1.36496 0.83852,-1.56189 4.68437,-2.04041 6.88885,-0.85696 5.02148,2.69577 1.13088,10.64067 -5.80993,11.8653 l -2.39617,0.42264 1.62788,0.8739 c 1.48561,0.79753 1.86769,0.6999 4.41229,-1.17856 1.53318,-1.13178 3.58643,-2.19806 4.5633,-2.36959 2.10833,-0.37012 4.71437,0.85635 4.55101,2.14199 -0.14785,1.16612 0.66223,1.57583 2.64875,1.33935 l 1.59533,-0.1896 -0.59105,-1.72326 c -1.36507,-3.97923 -7.4005,-11.39871 -10.72375,-13.18276 -0.58801,-0.31568 -0.94808,-0.79822 -0.80082,-1.07254 0.47633,-0.88733 4.12351,1.53046 7.44028,4.93152 9.91028,10.16328 14.09316,12.20189 19.52407,9.51571 2.45433,-1.21407 2.3801,-2.63131 -0.32966,-6.30034 -5.69929,-7.71564 -6.98821,-8.79872 -16.72,-14.04731 l -8.96967,-4.83759 -3.4217,0.0906 c -2.93465,0.0781 -3.53565,0.30417 -4.2233,1.58843 -1.53088,2.85168 -4.85051,5.3136 -7.03268,5.2051 -2.96334,-0.14698 -4.0717,-0.95612 -4.08054,-2.978 -0.007,-1.66986 -0.0437,-1.70767 -0.63037,-0.65979 -0.71601,1.27781 -1.57069,1.08543 -1.39303,-0.31382 0.1088,-0.85667 0.004,-0.91133 -1.12091,-0.57293 -0.85865,0.25876 -1.39806,0.88964 -1.74963,2.04565 -1.07421,3.53164 -5.16668,4.62215 -8.96594,2.38927 -1.88542,-1.10921 -2.34286,-1.12413 -4.48331,-0.15478 -3.49247,1.58232 -7.00731,4.35364 -6.92777,5.46206 0.0497,0.68789 0.22484,0.63534 0.68339,-0.20545 0.83021,-1.50522 3.03858,-1.21073 5.01425,0.67487 1.65434,1.57872 2.20816,5.04518 1.12718,7.05128 -0.78266,1.45786 -3.86276,3.32576 -5.47256,3.32377 -1.89542,-0.003 -3.56958,-2.81971 -3.35159,-5.63985 0.10184,-1.31865 -0.0549,-2.52635 -0.3484,-2.68394 -0.29345,-0.15753 -1.77072,1.00137 -3.28218,2.57554 -1.51172,1.57398 -4.86439,4.72898 -7.45112,7.01121 -2.58598,2.28212 -4.743,4.22548 -4.79293,4.31851 -0.0497,0.0926 0.62879,0.3887 1.50839,0.65622 1.74602,0.53089 2.94074,3.02562 2.1526,4.49376 -1.91297,3.56325 -5.81062,1.43905 -5.1784,-2.82067 0.2255,-1.51868 -0.29435,-1.20904 -5.17385,3.08385 -4.78337,4.20813 -9.31851,7.67943 -9.45237,7.23546 -0.0584,-0.19878 1.25995,-1.55667 2.93281,-3.01847 3.42356,-2.99106 4.19671,-3.98997 2.75211,-3.5546 -1.38142,0.41643 -2.68086,-0.51012 -2.67923,-1.90998 0.004,-1.9478 0.96282,-3.2563 2.2175,-3.02079 1.55726,0.29186 2.7119,2.17558 2.06854,3.37409 -0.2895,0.53925 -0.35459,1.07231 -0.14629,1.18415 0.5455,0.29284 14.56828,-12.1117 14.38389,-12.72389 -0.0846,-0.28105 -0.58213,-0.23779 -1.10653,0.0975 -1.37219,0.87517 -4.6282,-0.97782 -5.10575,-2.90621 -0.35264,-1.42284 -0.29099,-1.53887 1.57538,-2.97571 1.64973,-1.26548 4.96382,-1.86902 6.30661,-1.14813 0.7702,0.41346 0.88913,2.7374 0.20505,4.01163 -1.28892,2.40099 -0.15386,2.06931 2.96193,-0.86561 1.61346,-1.5194 3.28679,-3.00681 3.7184,-3.3052 1.31979,-0.91194 6.47674,-6.84239 6.34091,-7.29213 -0.0697,-0.23188 -4.20542,0.27014 -9.19017,1.11636 -11.99383,2.03642 -21.6062,3.11441 -27.91014,3.13034 -2.83141,0.007 -6.65781,0.0384 -8.50286,0.0693 l -3.355632,0.0565 0.56052,1.85843 c 0.446458,1.4823 0.282628,2.37485 -0.808882,4.40809 -1.976278,3.6812 -4.008014,4.87392 -6.269728,3.68004 -0.686615,-0.36861 -1.446612,-0.23352 -2.05065,0.35336 -0.526677,0.51157 -3.338809,2.68882 -6.248771,4.83846 -2.909919,2.14952 -7.198125,5.34246 -9.528921,7.09522 -2.330633,1.75286 -4.905106,3.64741 -5.720816,4.2101 -2.019914,1.39375 -2.228932,1.96633 -0.81497,2.2315 1.443488,0.27064 2.820718,2.57712 2.514807,4.21029 -0.281459,1.50005 -1.949606,2.59699 -3.412564,2.24377 -1.448438,-0.34986 -2.776855,-3.25858 -2.080607,-4.55551 0.283792,-0.52867 0.291624,-1.08173 0.01746,-1.229 -0.274536,-0.14737 -0.626435,-0.0302 -0.782452,0.26046 -0.155895,0.29038 -0.423415,0.28678 -0.593862,-0.008 -0.665084,-1.14943 2.946244,-4.75059 9.172236,-9.14691 2.517767,-1.77763 4.520298,-3.42275 4.45021,-3.65562 -0.148802,-0.49358 -3.275859,-0.83084 -10.538831,-1.13728 -2.860783,-0.12089 -5.260716,-0.41671 -5.333471,-0.6577 -0.160499,-0.53316 5.118227,-0.44765 9.565953,0.15515 3.550769,0.48096 7.723404,-0.96628 5.785355,-2.00671 -0.966073,-0.51863 -0.934984,-4.17314 0.04379,-5.12354 1.050449,-1.0205 3.250329,-0.52264 4.234976,0.95877 0.93866,1.41152 0.345834,3.87913 -1.135218,4.72696 -1.712839,0.98013 -1.059712,1.72503 0.785042,0.8948 0.889685,-0.40061 1.723864,-0.91377 1.853351,-1.14057 0.12346,-0.22992 1.663406,-1.4855 3.408421,-2.79725 1.744842,-1.31194 3.391003,-2.64375 3.657571,-2.95995 0.681275,-0.80722 0.269293,-4.22455 -0.563142,-4.67143 -0.789543,-0.42387 -0.401931,-1.38639 0.841137,-2.0882 1.515348,-0.85587 0.840928,-1.45658 -1.835359,-1.63476 -2.737723,-0.1825 -4.618887,-0.79708 -3.377486,-1.10302 1.593691,-0.39306 11.116361,-0.11941 13.579155,0.39032 3.551688,0.73464 26.882098,-1.25 27.567288,-2.34506 0.6528,-1.04502 -2.13292,-2.96481 -7.23733,-4.9876 -2.90908,-1.1524 -5.45503,-2.08543 -5.65804,-2.07286 -0.20349,0.0127 -2.3576,1.07244 -4.78812,2.35551 -2.43064,1.28325 -4.73008,2.45565 -5.11031,2.60488 -1.04214,0.40978 1.73587,-1.90971 4.04455,-3.37699 2.99415,-1.90225 2.87941,-2.81741 -0.47876,-3.82201 -2.47206,-0.73927 -2.79538,-0.68693 -3.46488,0.5601 -0.99878,1.86042 -3.4671,3.11399 -5.248333,2.66504 -1.120111,-0.28218 -1.602373,-0.83003 -2.059303,-2.35088 -0.543404,-1.80311 -0.472151,-2.07851 0.786583,-3.03662 0.76133,-0.57915 1.389269,-1.19512 1.39538,-1.36859 0.01588,-0.43616 -2.170639,-1.13516 -2.708804,-0.8664 -0.752763,0.37616 -5.462032,-1.93945 -8.007003,-3.93742 -1.980782,-1.55464 -1.399276,-2.3427 0.842404,-1.13927 1.528522,0.82055 1.811845,0.80248 1.880021,-0.11517 0.340942,-4.5497 3.986167,-7.65959 7.049325,-6.01517 2.82035,1.5141 3.032205,2.87266 1.028539,6.60487 -1.898042,3.53557 -1.90976,3.50372 1.513102,4.36311 1.245944,0.31276 3.561849,1.11588 5.146859,1.78478 1.5848,0.66855 4.28363,1.57194 5.99718,2.00697 1.71358,0.43555 7.20558,2.77659 12.2044,5.20266 l 9.08898,4.41113 4.28209,-0.60192 c 6.21829,-0.87393 11.86566,-2.15935 12.19684,-2.77625 0.15817,-0.29467 1.13875,-0.81736 2.17927,-1.16192 1.76636,-0.58489 1.94887,-0.8159 2.76304,-3.49732 1.14062,-3.75716 2.36826,-5.03645 4.66572,-4.86132 2.34828,0.17867 2.97514,-0.87085 1.11707,-1.86833 -2.63895,-1.41671 -2.8249,-6.54179 -0.34837,-9.61591 1.42711,-1.77154 1.01743,-4.68593 -1.48053,-10.52717 -2.37376,-5.55172 -2.28693,-5.45655 -4.83452,-5.30144 -2.13623,0.13017 -2.35326,0.0354 -3.69647,-1.61791 -2.67369,-3.29057 -5.3026,-4.19772 -16.50537,-5.69535 -3.79228,-0.50706 -8.59592,-1.25475 -10.67475,-1.66144 -3.12539,-0.61172 -3.91374,-0.5506 -4.55372,0.3529 -1.27029,1.79342 -3.08345,2.79615 -5.00221,2.76648 -2.15122,-0.0332 -3.29343,-1.065 -3.69216,-3.3343 -0.27077,-1.54284 -0.46971,-1.70889 -2.67223,-2.22888 -4.262496,-1.00653 -3.5142,-3.911974 0.78147,-3.033896 1.46608,0.299556 2.33453,0.188724 2.39715,-0.305673 0.0543,-0.426641 0.81529,-0.991606 1.69111,-1.255583 2.18046,-0.65709 5.78001,1.251958 6.29735,3.340042 0.24601,0.99365 0.77161,1.57806 1.57141,1.74686 1.94072,0.41053 15.15698,1.15282 15.32449,0.86093 0.0799,-0.14893 -0.46109,-0.87336 -1.21179,-1.61467 -0.84816,-0.83714 -1.33213,-2.007051 -1.27826,-3.088983 0.0473,-0.957506 -0.4853,-2.803975 -1.18401,-4.102899 -1.38015,-2.56598 -1.23426,-3.283027 0.26664,-1.311196 0.81842,1.075135 1.20092,1.15221 3.01316,0.606007 1.69156,-0.509722 2.33424,-0.412086 3.472,0.526889 0.76827,0.633386 1.66422,1.942626 1.99162,2.908009 0.50329,1.484344 0.3788,2.054095 -0.8056,3.687763 -1.33805,1.84568 -1.34255,1.98202 -0.0976,3.04962 0.93284,0.80002 2.24181,1.15895 4.60256,1.26706 3.77425,0.17087 8.26082,-0.71882 8.20547,-1.62706 -0.0788,-1.28894 -4.6935,-9.336348 -6.64218,-11.582872 -3.22975,-3.72309 -6.86946,-6.263884 -10.63007,-7.420957 -2.98537,-0.918345 -3.29721,-0.896805 -3.48543,0.239765 -0.53189,3.21233 -4.81629,8.144487 -7.48149,8.61264 -2.59067,0.454581 -6.23681,-1.991259 -5.90421,-3.960921 0.072,-0.423169 -0.0243,-0.330226 -0.21438,0.206399 -0.18871,0.537215 -0.54886,0.760312 -0.79698,0.497311 -0.57129,-0.605391 -0.0684,-4.138711 0.84939,-5.96799 1.13172,-2.257001 -0.10253,-2.076264 -1.85637,0.271619 -0.99356,1.330272 -1.80144,3.066471 -2.09174,4.499642 -0.26059,1.28338 -0.69784,2.745309 -0.97169,3.249054 -0.81552,1.519129 -3.32737,2.540871 -5.6493,2.314996 -2.04179,-0.19849 -2.36281,-0.409625 -4.83069,-3.177455 -2.61331,-2.930846 -2.637335,-3.001704 -2.096047,-6.156513 0.727128,-4.240086 2.403128,-6.194404 5.222927,-6.091085 2.59283,0.09496 2.73127,-0.690051 0.46185,-2.615348 -1.50671,-1.278072 -2.50258,-1.612056 -6.08266,-2.03949 l -4.281173,-0.510963 -1.174189,1.999218 c -0.645398,1.099664 -1.347814,2.393394 -1.564431,2.872901 -0.25482,0.584621 -0.853493,0.692518 -1.789827,0.324485 -1.752812,-0.689507 -2.68359,0.08281 -1.464575,1.215044 0.841299,0.780997 0.766204,1.050634 -0.991976,3.565257 -2.222952,3.180216 -3.780978,4.193676 -6.693326,4.353563 -3.003788,0.164889 -4.133665,-0.629547 -4.229682,-2.974657 -0.06371,-1.564109 0.283845,-2.506822 1.582658,-4.290455 0.915279,-1.256956 1.949739,-2.3032 2.2986,-2.324579 0.385786,-0.02328 0.553426,-0.43712 0.428887,-1.055343 -0.354621,-1.749767 -1.039236,-1.563344 -2.254862,0.613569 -0.643178,1.15684 -1.626949,2.436045 -2.181622,2.845276 -0.706699,0.521126 -0.446984,-0.127185 0.868469,-2.16924 2.414484,-3.74724 2.35876,-5.441077 -0.184042,-5.607076 -0.935061,-0.06091 -1.746649,-0.264689 -1.803453,-0.453046 -0.05688,-0.189177 0.442275,-0.239713 1.108631,-0.114671 1.907088,0.357558 2.371013,-1.20896 0.532627,-1.799907 -1.981115,-0.636905 -9.384451,-2.131404 -9.855015,-1.989561 -0.202935,0.0612 -0.217138,0.968931 -0.03273,2.01766 0.600975,3.421644 -2.37027,6.65512 -6.111372,6.650199 -1.927702,-0.0037 -3.358172,-2.588739 -3.032279,-5.482593 0.151257,-1.345909 0.04897,-2.568813 -0.227542,-2.717271 -0.824947,-0.44286 0.281192,-1.890792 1.603926,-2.099839 1.152131,-0.181981 1.167,-0.227992 0.236992,-0.740013 -2.940981,-1.616843 -5.010631,-1.889972 -6.308807,-0.828331 -2.451999,2.004906 -5.053703,0.249211 -4.709906,-3.178546 0.16283,-1.623589 0.373041,-1.934236 1.607426,-2.37453 1.801683,-0.642514 2.933168,-0.03273 3.857281,2.070762 0.65527,1.501457 1.046427,1.770327 3.936394,2.704068 1.764824,0.570177 3.532873,0.944907 3.928743,0.832829 0.395978,-0.112342 1.529371,0.230452 2.518621,0.76155 0.989492,0.531151 3.792884,1.377289 6.22938,1.880526 3.488105,0.720302 4.317677,0.716148 3.900564,-0.01984 -0.393192,-0.694135 -0.02514,-0.598858 1.430335,0.370813 1.077179,0.718979 2.0233,1.187186 2.099815,1.044681 0.320678,-0.597403 -2.202915,-4.194281 -3.389918,-4.831503 -3.038264,-1.631077 -1.385708,-6.525049 2.890361,-8.559139 2.436257,-1.158796 2.73939,-1.156864 4.321733,0.02942 2.249168,1.686163 3.07181,4.110328 2.043901,6.025091 l -0.809019,1.506988 2.678086,-0.936943 c 1.650948,-0.57777 3.129259,-0.69215 3.85472,-0.298476 1.916272,1.028779 4.435714,5.111565 4.594596,7.417726 0.18047,2.61321 0.613833,2.889224 4.466828,2.842895 4.160082,-0.05001 4.182802,-0.06324 4.692282,-2.709333 0.43511,-2.260706 0.38179,-2.371143 -1.48759,-3.073348 C 98.460135,66.181109 97.848527,65.460067 96.122465,62.131767 93.932506,57.902111 86.582672,47.106079 83.528748,43.633079 81.80813,41.676167 81.540142,41.525461 80.08678,41.69871 c -3.211615,0.381503 -5.679943,-2.706899 -4.266827,-5.339239 0.423463,-0.788723 0.45225,-1.4097 0.0686,-1.474444 -0.364379,-0.06199 -1.167183,-0.903499 -1.783845,-1.870895 -0.621638,-0.974989 -1.357818,-1.621843 -1.652431,-1.451319 -0.292471,0.169122 0.231645,1.309582 1.163928,2.534629 1.121358,1.47275 1.479577,2.413582 1.057352,2.777755 -0.351681,0.302392 -0.478311,0.827167 -0.282096,1.165648 0.562346,0.972027 -0.457512,2.350109 -2.350849,3.176588 -3.098533,1.35255 -7.25908,-1.851316 -6.730736,-5.183267 0.451829,-2.84869 1.123003,-3.750072 3.19368,-4.289267 l 1.874522,-0.488024 -1.452877,-1.195228 C 68.126161,29.404395 67.367307,28.198001 67.237981,27.381338 67.07431,26.345601 64.293486,23.018254 58.042966,16.37999 53.114766,11.145526 49.487913,7.0685877 49.982633,7.3194921 51.144837,7.9093277 58.342139,15.038288 63.446454,20.65653 l 3.988988,4.390654 1.260848,-2.901315 c 1.011452,-2.327354 1.368293,-2.775902 1.8106,-2.264119 0.316888,0.366898 0.531389,0.34425 0.507335,-0.05495 -0.0436,-0.716756 3.848,-3.020933 4.512684,-2.671974 0.939345,0.504296 1.244809,0.539803 2.679618,0.416481 1.335384,-0.11692 1.515189,-0.02249 1.420151,0.738796 -0.06191,0.481912 0.153455,1.183508 0.47675,1.558475 0.428022,0.496464 0.707318,0.357426 1.022226,-0.500433 0.354115,-0.962977 0.93572,-1.119055 3.143832,-0.842724 3.849817,0.482362 4.824621,1.13964 5.880679,3.966183 1.011823,2.707958 0.709052,3.879268 -1.233273,4.771205 -1.791105,0.822854 -1.887752,1.277196 -0.353536,1.663515 1.092621,0.275325 1.368184,0.763375 1.481661,2.626254 0.179414,2.940394 -0.488762,4.12877 -2.64573,4.706117 -2.657811,0.711306 -5.328891,-1.228063 -6.347958,-4.608883 -0.524724,-1.741408 -1.243885,-1.968579 -1.436055,-0.453601 -0.06435,0.508635 0.684189,2.008002 1.664073,3.332268 1.221129,1.650444 1.761303,3.090095 1.717411,4.57753 -0.05633,1.912435 0.380444,2.66102 3.680912,6.310313 2.059723,2.277454 5.340533,6.285574 7.290824,8.906668 1.950406,2.62136 4.193332,5.292831 4.984626,5.937118 0.791552,0.643546 1.94887,2.146962 2.57284,3.339968 0.62412,1.193086 1.20805,2.208742 1.29841,2.25724 0.0896,0.04813 0.8772,-0.98134 1.74889,-2.287773 1.78181,-2.669672 4.64357,-4.354036 8.28961,-4.878599 2.94823,-0.424312 4.54208,0.442357 6.67311,3.628311 l 1.69886,2.540106 0.34505,-1.369563 c 0.44634,-1.77173 1.30995,-1.89357 5.6439,-0.795602 2.35829,0.597455 3.94846,1.299977 4.78382,2.113439 1.72364,1.678093 3.30061,5.339662 3.4657,8.047513 0.13539,2.225517 0.11031,2.277195 -1.65957,3.378124 -2.30671,1.433324 -5.58114,1.306295 -9.07216,-0.352372 -2.43361,-1.155809 -2.80591,-1.184093 -3.11941,-0.236435 -0.52994,1.601153 -0.40526,1.705026 2.63215,2.191886 2.04626,0.328215 4.26749,1.272463 8.27472,3.517347 5.41337,3.034638 5.51841,3.066126 9.01623,2.844059 3.2372,-0.20582 3.64246,-0.102473 4.75475,1.212244 1.70669,2.017763 2.2176,3.525602 2.53455,7.478768 0.18631,2.321687 0.98795,4.769268 2.46036,7.511171 2.55426,4.75671 4.70378,10.32098 7.00987,18.14402 0.9108,3.08956 1.83795,5.71504 2.06054,5.83456 0.2226,0.11949 1.01291,-0.18706 1.75628,-0.68131 0.74332,-0.49413 2.72185,-1.02504 4.39664,-1.1804 2.50417,-0.23197 3.32999,-0.0547 4.64782,0.99739 0.88162,0.70393 1.88188,1.82216 2.22327,2.48532 0.87165,1.69457 1.31062,1.79569 1.86777,0.4296 0.66437,-1.62689 4.64969,-1.44777 8.10398,0.36523 2.15863,1.13263 2.76398,1.78001 3.67464,3.92819 0.59976,1.4142 1.06035,3.38278 1.02346,4.37443 -0.0586,1.57094 -0.26167,1.92411 -1.57347,2.74294 -1.79089,1.11562 -1.74456,1.54488 0.2872,2.66602 0.83685,0.47154 1.91765,1.46558 2.39292,2.22594 1.1606,1.85565 9.04209,6.07489 12.23127,6.54267 1.30981,0.19379 3.25966,0.81978 4.33361,1.39094 1.30106,0.69848 2.71777,0.91543 4.25677,0.66882 1.26741,-0.2032 2.67076,-0.17241 3.11862,0.068 2.25938,1.21296 4.38835,6.63361 4.48255,11.41399 0.0577,2.93934 0.50078,4.58801 1.84433,6.86409 1.29379,2.19197 1.76829,3.87088 1.76829,6.25907 0,3.93001 0.43574,8.03349 1.41399,13.32391 0.40134,2.16818 0.96668,6.60874 1.25661,9.86809 0.47366,5.32407 0.83032,6.49134 3.51303,11.49731 1.64224,3.06432 4.16005,8.31061 5.59546,11.6586 1.57893,3.68281 3.07351,6.33537 3.78455,6.71565 1.08633,0.5832 1.0944,0.49051 0.0935,-1.2151 -1.86092,-3.1718 0.0375,-6.90478 3.34211,-6.57368 2.0202,0.2027 2.5672,-0.21828 1.65626,-1.27441 -0.60774,-0.70441 0.35756,-3.08981 1.729,-4.27261 1.73263,-1.4946 5.6061,-0.28143 6.64808,2.08185 0.42572,0.96581 1.59764,0.96653 2.11609,0 0.20881,-0.38899 1.11971,-0.77208 2.02356,-0.85118 1.5291,-0.13378 1.77096,0.019 3.46091,2.18958 0.99975,1.28328 1.83851,2.68168 1.86444,3.10721 0.0353,0.57999 0.44995,0.77439 1.65518,0.77708 0.99253,0.003 2.4144,0.55931 3.7134,1.45741 1.6891,1.16782 2.25084,2.02625 2.8434,4.34536 0.83809,3.27943 0.67892,3.81458 -1.50993,5.07936 -2.17697,1.2578 -3.54198,1.44963 -4.94734,0.69519 -0.89405,-0.47998 -1.23629,-0.40147 -1.32577,0.3047 -0.0672,0.52302 -0.23143,1.15755 -0.36674,1.40957 -0.13531,0.25201 0.0723,0.6288 0.46122,0.83761 0.66799,0.35862 1.86428,-0.0378 11.10269,-3.67834 2.08809,-0.82309 7.44498,-2.67372 11.90373,-4.11276 5.14147,-1.65987 8.1475,-2.93553 8.21772,-3.4884 0.31372,-2.47044 8.91792,-4.67881 17.07783,-4.38253 2.07986,0.0754 4.93813,0.13824 6.35082,0.1397 1.41311,0.003 4.2944,0.15901 6.40249,0.35049 4.93202,0.4477 9.28058,-1.43447 11.08668,-4.79872 1.1521,-2.14612 3.1038,-3.25133 4.45828,-2.52421 1.02984,0.55288 1.00931,-0.39049 -0.0454,-2.06981 -1.25891,-2.00418 -0.87246,-3.72247 1.54628,-6.8736 1.46854,-1.91345 2.02385,-2.29821 2.63263,-1.82428 0.49612,0.38565 0.80965,0.30485 0.87593,-0.2231 0.0581,-0.45249 0.64717,-0.7984 1.31204,-0.76715 1.12834,0.0526 1.25196,-0.13143 1.87772,-2.79692 0.36862,-1.56932 0.93136,-3.36367 1.25072,-3.98743 0.71379,-1.39335 -0.0484,-1.92656 -1.1814,-0.82592 -0.4568,0.44392 -1.84994,0.86913 -3.09507,0.94519 -1.76802,0.10777 -2.41821,-0.0935 -2.96634,-0.91799 -1.02455,-1.54088 -1.33692,-1.5662 -1.69643,-0.13817 -0.25048,0.99367 -0.81455,1.33162 -2.52646,1.51779 -3.76928,0.40869 -5.61797,-0.10976 -7.16097,-2.00893 -2.03549,-2.50516 -2.12723,-3.67115 -0.39936,-5.08413 1.46933,-1.20095 5.12675,-1.75205 6.55246,-0.98666 0.44764,0.24032 0.97467,0.13764 1.17101,-0.22807 0.68083,-1.26826 0.0406,-1.67857 -2.10978,-1.35122 -3.76449,0.57218 -4.17534,0.29894 -0.80262,-0.53182 6.14201,-1.51514 3.44689,-4.05485 -4.94244,-4.65733 -2.1055,-0.15097 -5.24708,-0.11795 -6.98098,0.0732 -2.54431,0.28107 -3.1129,0.5433 -2.94727,1.35968 0.27562,1.36041 -1.24936,2.93123 -3.84993,3.96552 -2.82577,1.12411 -5.30251,1.03555 -7.74779,-0.27718 -1.6764,-0.89998 -2.07052,-1.46492 -2.44271,-3.50118 -0.37963,-2.07695 -0.65162,-2.45544 -1.87841,-2.61485 -3.31719,-0.43174 -3.72269,-1.97493 -0.4232,-1.61615 1.085,0.11885 3.30197,-0.17378 4.92654,-0.64979 1.76532,-0.51771 4.02098,-0.63945 5.60636,-0.30327 2.50926,0.53205 2.60993,0.4984 1.86298,-0.62544 -1.78069,-2.67833 2.93116,-6.85628 5.92146,-5.25098 2.76865,1.48632 1.63388,6.58564 -1.34133,6.02779 -1.36451,-0.25577 -1.928,0.45852 -1.10975,1.40708 0.74753,0.86704 13.27127,-0.58959 14.26462,-1.65888 1.12363,-1.21013 0.91122,-1.81706 -1.94942,-5.55411 -2.41134,-3.1505 -6.21827,-6.6912 -8.6087,-8.00595 -2.54572,-1.40203 -13.33759,-5.87788 -13.81839,-5.73333 -0.29779,0.0897 -1.6287,2.14124 -2.9576,4.55919 -2.18871,3.98177 -2.63369,4.49456 -4.72236,5.44388 -3.35251,1.52318 -4.93347,0.48681 -6.34846,-4.16113 -0.60833,-1.99805 -1.27172,-3.72766 -1.47445,-3.84384 -0.20582,-0.11049 -0.28543,-0.38637 -0.18312,-0.6009 0.36074,-0.75747 3.67615,-3.97451 4.47204,-4.33919 0.99561,-0.456 0.76714,-0.58534 -3.38235,-1.91548 -4.03834,-1.29365 -4.34814,-1.27521 -3.89469,0.22972 0.70008,2.32291 -3.72624,5.25621 -6.04922,4.00909 -1.15454,-0.61978 -2.22272,-3.6404 -1.65894,-4.69053 0.18917,-0.35235 1.39057,-0.91749 2.67001,-1.25598 2.62081,-0.69339 2.27698,-1.10194 -1.78519,-2.12216 -1.96541,-0.49343 -2.65192,-0.9101 -3.45625,-2.09829 l -1.00399,-1.48174 2.19382,0.0297 c 1.54834,0.0206 2.97299,0.51379 4.84394,1.67635 5.05804,3.14303 8.64425,4.86399 10.47493,5.02589 l 1.84034,0.16296 -0.71372,-1.3635 c -1.55432,-2.97035 2.82139,-7.30859 6.64771,-6.59107 1.78681,0.33499 3.00088,3.18768 2.19072,5.14737 -0.70395,1.70518 -3.71088,3.37216 -4.91458,2.72597 -0.39177,-0.21034 -0.83277,-0.15769 -0.98004,0.1166 -0.35102,0.65387 0.11038,0.87942 7.23577,3.53754 8.70781,3.24858 11.1774,3.58283 15.5521,2.10547 l 3.67112,-1.23963 1.56454,2.68807 c 0.86056,1.47838 2.24467,4.55273 3.07594,6.83151 1.11334,3.05207 2.20617,4.84529 4.14856,6.80746 4.34546,4.38918 5.44756,5.2082 5.89357,4.37743 0.21449,-0.3996 0.20359,-1.18695 -0.0246,-1.74939 -1.27907,-3.15355 3.82117,-5.65971 7.49924,-3.68515 1.68082,0.90233 1.98152,1.36519 2.08251,3.20643 0.15788,2.87547 -0.90096,4.73075 -2.82823,4.95615 -1.50561,0.17605 -1.49082,0.20905 0.61682,1.37327 1.86137,1.02941 2.1767,1.04661 2.28272,0.13469 0.47101,-4.03864 2.65819,-6.03675 5.18578,-4.73762 1.37316,0.7044 1.48828,0.63873 2.34699,-1.34157 1.36223,-3.14076 3.36166,-16.43492 2.38707,-15.87101 -1.03926,0.60129 -4.8005,-0.99597 -5.87082,-2.49298 -1.47883,-2.06852 -1.29373,-5.21573 0.42326,-7.19524 1.50773,-1.73826 1.80948,-3.09616 0.52882,-2.37337 -1.309,0.73816 -3.05864,4.49972 -3.16889,6.8139 -0.14314,2.99447 -2.0243,4.49024 -5.58699,4.44241 -2.51447,-0.0339 -2.80136,-0.16084 -5.2695,-2.33341 l -2.61003,-2.29828 0.66037,-3.30711 c 0.75959,-3.80217 1.9077,-5.1468 4.59497,-5.38224 2.35069,-0.20605 2.51155,-0.86036 0.48016,-1.9509 -2.45787,-1.3195 -3.24339,-5.4171 -1.6188,-8.44333 0.69617,-1.29675 1.2918,-1.93296 1.48945,-1.5911 0.18899,0.32472 0.38068,0.1714 0.44738,-0.35761 0.0647,-0.5098 -0.59637,-1.56157 -1.4691,-2.33754 -3.10456,-2.76022 -6.01863,-5.19536 -7.89964,-6.60098 -2.5201,-1.8836 -2.97632,-3.75828 -1.3925,-5.72395 1.02722,-1.27526 1.10115,-1.83621 0.47964,-3.74396 -0.4009,-1.23401 -0.79666,-2.15373 -0.87961,-2.04364 -0.0819,0.11139 -0.66601,0.91966 -1.29569,1.79956 -0.63042,0.87874 -1.78379,1.94665 -2.56495,2.3713 -1.53556,0.83509 -4.89725,0.72613 -6.65192,-0.21584 -1.04203,-0.55943 -1.07529,-0.52218 -0.74062,0.82902 0.33483,1.35051 0.22731,1.47436 -2.37453,2.73497 -4.12512,1.99885 -6.19643,1.96501 -9.32108,-0.15232 -3.48827,-2.36358 -3.824,-3.34039 -2.00658,-5.83893 0.85265,-1.17208 1.24317,-2.08857 0.95261,-2.24457 -0.26916,-0.14449 -0.59595,-0.0642 -0.72594,0.17788 -0.81277,1.51395 -5.42205,-2.29989 -5.17078,-4.2781 0.14709,-1.15839 -0.67947,-1.62954 -2.42924,-1.38544 -1.3253,0.18497 -1.34028,0.21892 -0.86712,1.98564 0.39785,1.48713 0.17767,2.36255 -1.27746,5.07305 -1.62272,3.02276 -1.94585,3.32933 -4.17582,3.97467 -4.80613,1.38918 -9.30605,-1.89417 -8.73249,-6.37145 0.22072,-1.72318 -0.11255,-1.87569 -2.79082,-1.27725 -3.26851,0.73107 -5.64809,0.5648 -6.64811,-0.46474 -0.83884,-0.86419 -0.79026,-0.90718 0.97708,-0.86263 1.02325,0.0257 2.82795,-0.0444 4.01069,-0.15613 2.03488,-0.19203 2.2039,-0.33887 3.14692,-2.73584 2.64338,-6.71931 8.80984,-7.845472 13.65642,-2.4938 1.46857,1.62139 1.77242,1.75223 3.78418,1.62959 1.20324,-0.0735 2.31888,-0.37796 2.47941,-0.67702 0.16049,-0.29892 0.86325,-0.74744 1.5617,-0.9966 3.30338,-1.17781 -0.51525,-4.35086 -13.91729,-11.56427 l -10.57643,-5.700028 -0.6731,1.937859 c -0.48676,1.401291 -1.02825,2.044758 -1.95477,2.324264 -1.304,0.392821 -4.15764,-0.792324 -4.79692,-1.992765 -0.62421,-1.172028 -0.35264,-3.576079 0.54977,-4.870903 0.74116,-1.064654 0.69337,-1.335878 -0.3076,-1.74408 -2.40141,-0.97922 -0.59955,-1.370404 2.32373,-0.504661 2.49737,0.739748 3.14862,1.128337 3.77182,2.250646 1.02833,1.851981 4.52025,4.04236 4.80782,3.015753 0.34997,-1.248151 2.95484,-3.135313 5.24632,-3.800872 1.17877,-0.342027 2.26264,-0.844471 2.40874,-1.116597 0.74242,-1.383006 3.93491,2.803469 3.89922,5.113255 -0.0243,1.572663 -0.24167,1.988188 -1.62404,3.108193 -0.87855,0.71065 -1.64399,1.378323 -1.70069,1.483995 -0.2028,0.377722 3.75949,2.253883 6.84916,3.243324 2.47486,0.792477 3.58363,1.439254 5.2061,3.037543 2.37123,2.335744 2.95027,2.422334 2.32524,0.348301 -0.65161,-2.162387 0.18286,-3.169685 3.34658,-4.039106 4.98293,-1.369774 7.45501,0.368776 7.10171,4.994328 -0.11213,1.468621 0.0369,2.799521 0.33139,2.957591 0.86334,0.4635 0.761,-5.895395 -0.12094,-7.517309 -0.55763,-1.025081 -0.56256,-1.935459 -0.0159,-2.953917 1.54971,-2.886686 4.51265,-3.936024 8.57911,-3.038449 l 2.47703,0.546974 1.01412,3.254401 c 0.94033,3.016909 1.10575,3.22662 2.2723,2.875121 1.69613,-0.511436 1.94439,-1.098894 3.09581,-7.331315 1.44375,-7.814628 1.65669,-10.261974 1.25592,-14.428762 -0.19725,-2.049833 -0.24035,-4.241932 -0.0962,-4.871164 0.14372,-0.629709 0.37931,-2.582096 0.52223,-4.33959 0.21921,-2.700814 0.42871,-3.26398 1.35435,-3.63953 0.60259,-0.244422 1.32416,-0.178779 1.60401,0.145574 0.8999,1.043279 8.98689,-3.285887 13.84298,-7.410529 4.20536,-3.572034 6.37868,-5.284285 13.73243,-10.818125 1.50807,-1.134878 4.76501,-3.868288 7.23738,-6.074701 2.4723,-2.206202 4.98298,-4.413647 5.57909,-4.905402 1.47404,-1.216369 2.33577,-2.911925 1.45185,-2.858347 -0.39016,0.02355 -0.75481,0.399759 -0.81032,0.835052 -0.0561,0.434948 -0.55253,0.734192 -1.10373,0.66458 -0.55171,-0.0704 -0.95406,-0.408596 -0.89594,-0.749062 0.0601,-0.341603 -0.60261,-1.005363 -1.4701,-1.473676 -1.22613,-0.65823 -1.55601,-1.227534 -1.4805,-2.529522 0.35258,-6.078829 7.28641,-8.16483 10.65839,-3.206486 0.57822,0.850213 1.23119,1.319874 1.65651,1.191419 0.97792,-0.29464 -2.34334,4.279529 -3.45869,4.761971 -0.48501,0.210158 -1.81245,1.799352 -2.95,3.531208 -1.13853,1.731487 -3.55015,4.485217 -5.36114,6.118411 -4.689,4.228676 -4.7026,4.245636 -4.04408,5.009118 0.32864,0.380338 1.82324,1.006369 3.32192,1.390147 2.50439,0.641271 2.7712,0.580496 3.29724,-0.751284 1.09667,-2.774606 6.51835,-2.976457 7.06834,-0.263102 0.11676,0.575972 -0.18034,1.428353 -0.66021,1.894364 -0.48093,0.465693 -0.80071,0.884343 -0.71234,0.928793 0.0865,0.04644 1.8587,0.418915 3.93433,0.83185 2.0755,0.41275 3.88223,0.818066 4.01447,0.900483 0.84465,0.526812 -4.07691,-0.0436 -10.5868,-1.22674 -10.42866,-1.895396 -10.50076,-1.902037 -12.7816,-1.160992 -1.45947,0.474319 -3.29022,2.019988 -6.59548,5.569506 -2.51666,2.702348 -4.69574,5.137891 -4.84246,5.412422 -0.62878,1.171231 7.31134,4.872699 19.26667,8.980938 6.48489,2.228374 6.81281,2.272242 7.49356,1.004385 0.36713,-0.683366 1.90767,-1.381919 4.13956,-1.877007 1.95522,-0.433679 4.75438,-1.533525 6.22033,-2.444168 1.46579,-0.910643 5.00309,-2.818818 7.86048,-4.240398 2.85734,-1.421977 5.24034,-2.939521 5.29534,-3.373041 0.0553,-0.432885 -0.37192,-1.135697 -0.94845,-1.560936 -1.49431,-1.102122 -1.44219,-3.95179 0.0973,-5.342546 1.73246,-1.564561 3.56335,-1.543288 5.23906,0.06159 0.94309,0.902758 1.26331,1.754955 1.02119,2.716371 -0.46244,1.835891 0.4463,2.255811 2.37128,1.095878 2.33889,-1.409224 9.82122,-3.951923 13.716,-4.660053 3.21442,-0.584782 3.09768,-0.512657 -1.69598,1.049205 -5.77737,1.882404 -14.00784,5.272828 -19.58102,8.065929 -2.04288,1.024175 -5.89921,2.961931 -8.56965,4.306438 -2.67057,1.344718 -5.32474,3.01371 -5.89859,3.708664 -0.57433,0.694505 -1.67182,1.419649 -2.44023,1.609778 -1.41411,0.350467 -2.84763,2.236312 -2.35161,3.093562 0.40915,0.707522 9.82276,2.419879 11.96133,2.175986 1.03259,-0.117502 2.73754,0.232939 3.78931,0.778933 2.09447,1.087649 4.44186,1.052301 4.37367,-0.06538 -0.0599,-0.981181 -0.9357,-1.364536 -1.19202,-0.521917 -0.14357,0.462862 -0.99976,0.304112 -2.61927,-0.488315 -2.03785,-0.99695 -2.45904,-1.457775 -2.72836,-2.9972 -0.41127,-2.342436 -0.2785,-2.536905 2.16903,-3.174789 3.41272,-0.889423 5.89809,1.218301 5.3694,4.553638 -0.16455,1.036532 -0.1138,1.82888 0.11313,1.760776 0.58322,-0.175922 1.06736,-5.073412 0.52973,-5.362046 -0.72927,-0.391531 0.80478,-2.709069 2.34984,-3.549148 1.02158,-0.555545 2.14154,-0.529272 3.87615,0.09221 2.24297,0.802931 2.47173,1.03968 2.84284,2.940553 0.46667,2.390166 -0.23482,4.111704 -1.87709,4.606528 -1.7689,0.533188 -1.64243,0.866219 0.62968,1.65473 1.73795,0.603515 2.16869,1.016715 2.544,2.443269 0.24839,0.944324 0.2482,2.096085 0,2.559396 -0.24884,0.463519 -0.26567,1.302835 -0.0372,1.865257 0.56296,1.387605 -0.12142,2.493913 -1.21679,1.968027 -0.53263,-0.255852 -0.69728,-0.192199 -0.40632,0.156549 0.76158,0.914167 -1.25733,2.809295 -3.94756,3.704854 -1.85512,0.617781 -2.61638,0.581078 -3.43556,-0.164433 -0.88807,-0.80862 -1.08426,-0.786373 -1.2595,0.147526 -0.15009,0.799759 -0.89101,1.229866 -2.6771,1.556891 -3.4444,0.629578 -4.8804,0.326607 -6.61649,-1.396312 -1.89376,-1.879121 -1.97652,-2.577891 -0.52459,-4.4273 1.04939,-1.337069 1.05219,-1.501328 0.0257,-1.519129 -1.92137,-0.03273 -3.70408,-3.044349 -2.79955,-4.729271 0.26186,-0.487786 0.23357,-1.016979 -0.0626,-1.175941 -0.65394,-0.351075 -9.97783,-1.818058 -11.61243,-1.827159 -0.64217,-0.0037 -2.62062,-0.422169 -4.39645,-0.930778 -1.7757,-0.508265 -3.44368,-0.799677 -3.70639,-0.647594 -0.26336,0.15158 -0.29324,0.375258 -0.0691,0.495564 0.22445,0.120518 0.44916,0.840344 0.49893,1.599513 0.13628,2.074677 -2.17393,3.92245 -5.18935,4.153955 -2.4796,0.189762 -2.48751,0.186428 -3.72568,-1.687536 -1.07217,-1.622928 -1.10578,-2.110317 -0.24665,-3.584628 0.54806,-0.937895 1.46283,-2.154634 2.03544,-2.70174 0.91149,-0.870611 0.89572,-1.009571 -0.12419,-1.111012 -0.64104,-0.06353 -3.9673,-1.416394 -7.39132,-3.006487 -5.08839,-2.362597 -6.59083,-2.844085 -8.22354,-2.636705 -3.11,0.395975 -4.50435,1.069393 -6.39922,3.091074 -0.96401,1.028647 -2.95325,2.756668 -4.42058,3.839845 -2.11325,1.55964 -2.66813,2.238455 -2.66962,3.263556 0,0.711888 -0.46844,2.163684 -1.03912,3.226727 -0.57068,1.06299 -1.3562,4.202909 -1.74572,6.977118 -0.38947,2.77423 -1.45323,8.225335 -2.36371,12.113628 -1.15864,4.948931 -1.49564,7.659718 -1.123,9.036288 0.2929,1.08124 0.26165,3.10441 -0.0695,4.49522 -0.76634,3.22027 1.55265,13.17657 3.65895,15.70787 0.79054,0.95053 1.7219,2.76854 2.06941,4.03997 0.62188,2.27494 2.98482,5.38665 3.88432,5.11551 0.2521,-0.0759 0.19317,-0.28171 -0.13478,-0.45779 -0.93983,-0.50455 1.88979,-2.19778 4.95253,-2.96418 1.73151,-0.43317 3.16357,-0.38994 4.1217,0.12439 0.80762,0.4336 1.71723,0.56054 2.02158,0.28204 0.36253,-0.33166 0.68593,0.11912 0.93726,1.30641 l 0.38396,1.81271 0.99949,-1.82065 c 0.54033,-1.00645 1.32567,-2.10277 1.72529,-2.44731 0.50319,-0.43427 0.44075,-0.77976 -0.20915,-1.12864 -0.51451,-0.2762 -1.51926,-1.93296 -2.233,-3.68107 -1.465,-3.58979 -6.41842,-9.56852 -8.20521,-9.90349 -0.75274,-0.1411 -0.94668,-0.34554 -0.54893,-0.57531 0.33893,-0.19658 0.40606,-1.05925 0.14624,-1.9183 -0.57013,-1.89233 0.37393,-3.81987 2.50221,-5.10842 1.15044,-0.69657 1.73972,-0.73348 2.16083,-0.13486 0.31848,0.45263 1.21587,1.70284 1.99435,2.77845 1.6093,2.22387 1.87439,4.21227 0.61219,4.59266 -0.57208,0.17251 -0.7748,-0.0517 -0.68498,-0.75806 0.19672,-1.5498 -0.5734,-1.5734 -1.05651,-0.0319 -0.34999,1.1162 -0.6297,1.26815 -1.4869,0.80796 -2.29656,-1.2329 -1.28008,0.42495 2.78638,4.54533 2.34656,2.3771 4.82936,4.82301 5.51741,5.4351 l 1.2514,1.11302 2.66181,-5.79771 c 1.46389,-3.18891 3.56159,-7.45272 4.6613,-9.47586 1.85428,-3.41286 2.05859,-4.92601 0.47919,-3.56404 -1.11562,0.96231 -4.59605,0.62203 -6.06822,-0.59339 -1.28937,-1.06418 -1.57573,-1.807 -1.97639,-5.132863 -0.37211,-3.089622 3.42117,-4.754457 6.75534,-2.964524 0.68319,0.366768 1.50181,0.516893 1.81851,0.333536 1.04019,-0.601847 2.042,0.423596 1.85079,1.895187 -0.1034,0.793695 -0.0276,1.720264 0.16838,2.058694 0.38883,0.67201 0.6327,0.48027 3.14772,-2.465126 1.33099,-1.558422 0.93308,-0.666064 -1.86063,4.169806 -1.95447,3.384 -3.97195,7.27906 -4.48566,8.65431 l -0.93176,2.50206 2.23181,-0.75649 c 1.71789,-0.58193 2.45161,-0.53798 3.18675,0.1914 2.42832,2.4104 1.30604,4.9921 -2.66824,6.13862 l -2.89031,0.83351 -0.53793,-1.57988 c -0.29583,-0.86867 -0.65929,-1.64509 -0.8079,-1.72487 -0.14904,-0.08 -1.91027,2.90939 -3.91433,6.64245 -3.36759,6.27293 -3.56272,6.79519 -2.57212,6.88652 7.5065,0.68959 9.6361,2.11254 11.58706,7.74208 0.86119,2.48512 0.10845,3.98404 -2.32852,4.63598 -2.46891,0.66074 -2.73021,1.30037 -0.76004,1.85901 3.17696,0.90152 3.6608,7.68062 0.68903,9.65621 -1.28863,0.85672 -4.66916,0.72768 -6.44123,-0.24564 -1.4364,-0.79325 -4.04839,-4.19092 -4.58587,-5.97548 -0.32096,-1.06445 -0.6137,-1.30342 -1.32641,-1.0817 -0.70789,0.21998 -0.76509,0.64503 -0.25362,1.87873 0.36332,0.87728 0.98409,1.76792 1.37882,1.97982 1.21123,0.65024 3.04046,3.58185 3.44831,5.52633 l 0.38722,1.84462 1.14067,-0.75837 c 1.62404,-1.07958 4.738,0.83537 3.89919,2.39786 -0.49757,0.92686 -0.0214,1.12581 4.04771,1.6919 6.42363,0.8935 14.34684,-0.72416 19.05627,-3.89053 0.76485,-0.51417 2.82604,-1.50434 4.5806,-2.19983 2.62162,-1.03978 3.48712,-1.10551 4.85735,-0.36991 2.55958,1.37409 3.00921,3.64688 1.21041,6.11952 -1.28148,1.76133 -1.33479,2.07023 -0.48984,2.86419 1.69881,1.59748 3.59089,2.35038 6.84585,2.72391 1.76004,0.20194 3.83979,0.44625 4.62169,0.54264 1.19589,0.14758 1.38586,0 1.19692,-0.93239 -0.18423,-0.90882 0.26038,-1.56213 2.47698,-3.63966 3.80055,-3.56196 4.87386,-4.90009 4.2146,-5.254 -0.30544,-0.16398 -0.91543,0.0901 -1.35607,0.56428 -1.16406,1.25346 -3.22601,0.51239 -4.84817,-1.7427 -1.07014,-1.4868 -1.29921,-2.52093 -0.98716,-4.4555 0.37467,-2.32405 0.55396,-2.61674 2.32,-3.78397 1.05256,-0.69602 2.72719,-1.25283 3.72123,-1.23751 1.65772,0.0257 1.88238,0.18018 2.72007,1.87399 0.502,1.01539 0.72105,2.51904 0.48665,3.34158 -0.85735,3.00652 -0.58092,3.27121 1.04389,0.99978 l 1.6605,-2.32148 -1.19354,2.41128 c -0.65696,1.3263 -1.06092,2.48302 -0.89887,2.57001 0.70972,0.381 6.45875,-1.26027 8.7847,-2.50794 2.90563,-1.55882 3.25453,-1.95302 2.21877,-2.50904 -1.0332,-0.5547 -1.07992,-2.98527 -0.10941,-5.68164 0.73674,-2.04641 0.9302,-2.23168 1.82753,-1.74995 0.55195,0.29633 1.09781,0.36346 1.21367,0.14766 0.35751,-0.66595 4.41762,-0.63547 6.01459,0.0451 1.53019,0.6513 2.48523,2.0765 1.99964,2.98104 -0.14496,0.27003 -0.51361,0.20129 -0.81891,-0.15275 -0.82296,-0.95435 -1.44632,-0.54817 -1.0709,0.69839 0.21855,0.72544 -0.0615,1.56753 -0.83944,2.52546 -2.1399,2.63422 -3.22792,3.28094 -5.03746,2.99397 -0.98941,-0.15685 -2.94333,0.29424 -4.35337,1.00473 -1.40677,0.70902 -4.18285,1.86242 -6.16908,2.56323 -1.98594,0.70101 -3.76944,1.56125 -3.96319,1.91142 -0.18929,0.35259 -0.99084,0.9845 -1.77165,1.40878 -2.04177,1.11051 -4.80611,5.49286 -4.50731,7.14566 0.22733,1.25618 0.44267,1.31738 5.09399,1.44944 5.50397,0.15579 4.93109,0.49463 13.29595,-7.8621 2.64623,-2.6439 6.31082,-5.94521 8.14348,-7.33618 2.91542,-2.21306 3.35365,-2.74627 3.50594,-4.26511 0.43106,-4.29527 6.65353,-5.87383 7.6296,-1.93501 0.55312,2.23174 -0.71419,3.77005 -3.68342,4.47138 -1.4782,0.34941 -2.89287,0.39688 -3.14357,0.10626 -0.25111,-0.29035 -1.03219,-0.0742 -1.73646,0.482 -0.70384,0.55635 -2.36969,1.87205 -3.70125,2.9243 -5.00679,3.95608 -11.50705,12.13676 -10.20138,12.83769 1.12961,0.60643 12.87674,-0.92151 14.23326,-1.85102 1.84412,-1.26405 4.50141,-1.58581 6.08271,-0.7369 0.65122,0.3496 2.80901,0.23459 4.98462,-0.2658 2.10987,-0.48511 3.71589,-0.6577 3.56857,-0.3833 -0.14727,0.2743 -1.77726,0.82765 -3.62209,1.22965 -3.04888,0.66432 -3.35436,0.86212 -3.356,2.17133 -0.003,1.91376 -2.04224,4.3806 -4.06165,4.91191 -1.64327,0.43249 -4.32022,-0.57711 -4.386,-1.65407 -0.0209,-0.33173 -0.57735,-0.73265 -1.23814,-0.89297 -1.01947,-0.24611 -1.06323,-0.42497 -0.28731,-1.1784 0.50281,-0.48911 0.78258,-0.95924 0.61962,-1.04671 -0.16203,-0.087 -2.27925,0.18616 -4.70635,0.60647 -6.78138,1.17441 -17.28198,1.94916 -23.72403,1.74998 -3.2005,-0.0991 -5.95124,-0.251 -6.11277,-0.33771 -0.16214,-0.0871 -2.01245,-0.21288 -4.11332,-0.28038 -3.04199,-0.0976 -4.46833,-0.47099 -7.00651,-1.83359 -2.87012,-1.5408 -3.51684,-1.66232 -6.50936,-1.21827 -7.73784,1.14773 -8.07291,1.23865 -7.60717,2.06492 0.68781,1.22007 1.14025,1.29291 1.6885,0.2717 0.34692,-0.64623 1.44142,-0.85493 3.53303,-0.67374 4.01172,0.34774 4.53938,0.70183 5.25322,3.5269 0.6653,2.6336 0.0454,4.4092 -1.72622,4.94278 -1.50995,0.45519 -1.652,0.81166 -0.55689,1.39954 0.49416,0.26527 1.31439,1.99308 1.82276,3.83926 0.50837,1.84661 1.74472,4.66998 2.74731,6.27476 2.0515,3.28403 3.01434,3.70376 9.31627,4.06307 1.79845,0.10274 3.77645,0.45553 4.3952,0.78428 1.41886,0.76171 1.5135,0.55512 1.27315,-2.79678 -0.19423,-2.71417 -0.23646,-2.77252 -3.20014,-4.41598 -2.69687,-1.49762 -3.04241,-1.87629 -3.38576,-3.73827 -0.61082,-3.31245 0.34425,-5.45275 3.09274,-6.93136 5.34143,-2.87309 9.81779,-3.16762 11.88773,-0.78254 1.10249,1.27013 1.14228,4.8115 0.0763,6.79709 -0.43889,0.81754 -0.42077,1.44447 0.0491,1.6967 1.2718,0.68276 -0.33702,1.90982 -4.12967,3.15015 l -3.61005,1.18036 0.2345,2.24174 c 0.12875,1.23293 1.0818,5.34456 2.11778,9.13686 1.79673,6.57826 1.96786,6.9224 3.72351,7.47955 1.32688,0.42085 1.90449,0.90046 2.07078,1.72035 0.12666,0.62524 0.84887,1.46883 1.6047,1.87463 0.75576,0.40571 1.47431,1.23187 1.59705,1.83563 0.19826,0.97967 0.41156,1.08225 1.97702,0.9525 5.62682,-0.47041 9.73352,-2.56342 14.95177,-7.62088 2.80127,-2.71459 5.88748,-6.47822 5.48817,-6.69258 -0.11941,-0.0641 -1.13641,-0.14383 -2.26052,-0.17749 -1.9984,-0.06 -2.05989,-0.11011 -2.75185,-2.24025 -0.59402,-1.8285 -0.49631,-2.5723 0.60687,-4.62722 2.48579,-4.63036 6.62525,-5.64724 7.8753,-1.93426 0.34456,1.02335 1.08074,2.01676 1.63621,2.20771 0.87484,0.29962 0.83904,0.58388 -0.26046,2.1091 -0.69805,0.96959 -1.95082,2.5536 -2.78278,3.52081 -0.83145,0.96724 -2.33225,2.98125 -3.33431,4.47562 -2.26253,3.37335 -7.00989,7.58301 -10.94618,9.70613 -2.66306,1.43621 -7.8636,5.52304 -8.47296,6.65813 -0.12737,0.23725 0.31591,1.02767 0.98517,1.75667 1.10041,1.19862 1.18875,1.98319 0.34491,3.05994 -0.16118,0.20495 0.014,0.35372 0.3905,0.3316 0.41796,-0.0257 0.35992,0.36079 -0.14991,0.99611 -0.45723,0.57131 -1.06008,1.42195 -1.3385,1.89121 -0.27908,0.46855 -0.8423,0.67218 -1.25391,0.45119 -0.81164,-0.43571 -1.42989,0.22969 -0.96335,1.03633 0.15862,0.27463 0.90844,0.27884 1.66706,0.007 1.09058,-0.389 1.61496,-1.07633 2.51261,-3.29454 1.80375,-4.45577 1.92307,-4.61749 3.67874,-4.97751 2.88261,-0.59102 7.27758,2.45465 6.96876,4.82918 -0.48437,3.72229 -0.80873,4.20087 -3.28967,4.85725 -2.42314,0.64129 -2.46931,0.90654 -0.42937,2.46843 0.47702,0.36491 0.85185,1.71172 0.8337,2.99283 -0.0509,3.56707 -2.54457,6.72241 -6.35336,8.03796 -3.2264,1.11467 -5.32336,0.50893 -6.53163,-1.88676 -0.68154,-1.35163 -1.87733,-1.33774 -1.79443,0.0209 0.0736,1.20986 -5.08866,0.19997 -7.69263,-1.50463 -0.94028,-0.61883 -2.47756,-5.30177 -2.01843,-6.15707 0.23302,-0.43399 1.1906,-1.04661 2.12812,-1.36122 l 1.70437,-0.57246 -1.23433,-0.66262 c -0.67879,-0.36441 -1.34356,-1.0251 -1.47707,-1.46833 -0.3098,-1.02831 -2.4874,0.10051 -4.65359,2.41223 -1.81854,1.94035 -2.2846,3.01927 -1.97178,4.56197 0.39658,1.95694 -2.54884,4.92851 -5.05693,5.10107 -2.43491,0.16764 -2.78257,0.52411 -2.32252,2.38135 0.28284,1.14178 0.12005,1.50882 -1.1213,2.52272 -4.36917,3.57257 -15.13173,2.8352 -17.15437,-1.17522 -0.64322,-1.27548 -0.74866,-1.22902 -3.77809,1.65261 -3.66964,3.49028 -5.58117,3.92054 -10.73795,2.41774 -3.62255,-1.05577 -4.11737,-1.40388 -7.7556,-5.45928 -3.09145,-3.44559 -8.55634,-6.13143 -12.0436,-5.91916 -2.02631,0.1237 -2.74098,-0.15073 -6.38278,-2.44999 -5.47764,-3.45818 -7.26281,-3.93567 -12.68021,-3.39402 -2.52669,0.25263 -7.13113,0.32174 -10.2326,0.15317 -4.41735,-0.24011 -6.26187,-0.0257 -8.51533,0.98984 -1.58218,0.71342 -3.91829,1.65303 -5.19176,2.08849 -2.20445,0.75445 -2.30579,0.86748 -2.12656,2.37521 0.10324,0.87016 -0.23101,2.36318 -0.74321,3.31729 -0.68821,1.28196 -0.70752,1.66667 -0.0712,1.47582 0.47289,-0.14277 1.10575,0.0254 1.40581,0.37354 0.33324,0.38529 0.72512,0.29882 1.00489,-0.2223 0.29109,-0.54221 0.13965,-0.89559 -0.41394,-0.96594 -0.63574,-0.0806 -0.68731,-0.74423 -0.18939,-2.44253 1.18824,-4.05196 3.43276,-4.61629 4.91813,-1.23613 1.08791,2.47557 0.64764,3.54819 -1.80308,4.39306 -3.04766,1.05063 -3.50645,1.78038 -2.08979,3.32343 1.48913,1.62195 1.62113,1.61951 2.02176,-0.039 0.23344,-0.96727 0.0251,-1.3239 -0.87336,-1.49233 -0.86911,-0.16304 -0.3901,-0.49332 1.81993,-1.25396 2.90897,-1.00132 4.73372,-0.77971 4.81677,0.58499 0.0225,0.3655 0.22458,0.7633 0.44945,0.884 0.46582,0.25008 3.33713,-1.96253 3.18828,-2.45663 -0.0529,-0.17592 -1.25447,-1.60872 -2.66838,-3.17887 -1.41369,-1.57043 -2.5174,-3.15367 -2.45234,-3.51839 0.17574,-0.98658 3.58116,0.24198 10.19665,3.67836 5.6937,2.95696 5.98966,3.04795 8.83639,2.69214 2.57744,-0.32202 3.05893,-0.59587 3.85535,-2.19202 l 0.91194,-1.82322 1.06617,4.1275 c 1.96614,7.61023 0.68505,9.86467 -3.81617,6.71489 -1.42409,-0.99555 -3.83487,-2.022 -6.39733,-2.72021 -2.26216,-0.61677 -4.6314,-1.27926 -5.26526,-1.47267 -1.37232,-0.4181 -7.07806,2.6984 -7.23739,3.95329 -0.06,0.47803 -0.95314,1.2853 -1.9835,1.79486 -1.57589,0.7796 -2.08267,0.75338 -3.1945,-0.16422 -1.13922,-0.94041 -1.33247,-0.94108 -1.39695,-0.01 -0.15507,2.22811 -1.59658,3.89527 -3.70718,4.28768 -4.01193,0.74573 -7.51465,-1.52006 -7.33952,-4.74829 0.0824,-1.51749 -0.1587,-2.05039 -1.00391,-2.21764 -0.80706,-0.15988 -1.28558,-0.99411 -1.74252,-3.03862 -0.34657,-1.54967 -0.7398,-2.61359 -0.87389,-2.36379 -0.1342,0.24998 -0.11284,0.98247 0.0472,1.62811 0.3514,1.41999 -2.77272,6.09881 -6.50711,9.74416 -1.99509,1.94767 -2.79294,2.32415 -5.1096,2.41096 -1.51001,0.0564 -2.87348,0.034 -3.0303,-0.0503 -0.15645,-0.084 0.57957,-0.78122 1.63666,-1.54834 2.5536,-1.85436 6.08308,-6.35215 7.42174,-9.45754 0.59452,-1.37906 0.98425,-2.55947 0.86617,-2.62287 -0.11941,-0.0641 -2.89764,0.90237 -6.17651,2.1462 -3.27904,1.24397 -8.28987,3.0358 -11.13542,3.98243 -3.81693,1.26976 -6.46787,2.66065 -10.11097,5.30598 -2.71592,1.97162 -5.04897,3.7923 -5.18493,4.04563 -0.13603,0.25334 -0.7869,0.56791 -1.44587,0.69901 -1.08522,0.21592 -1.08863,0.11734 -0.035,-1.04352 0.63994,-0.70524 1.64078,-1.95066 2.22392,-2.7677 0.5841,-0.81669 1.98107,-2.3445 3.10656,-3.39437 1.12511,-1.05002 2.0008,-2.0584 1.94574,-2.24112 -0.0554,-0.18351 -0.8324,-0.42458 -1.72434,-0.54335 -0.89305,-0.11623 -2.78961,-0.83269 -4.21447,-1.5921 -1.42253,-0.76367 -3.04403,-1.34404 -3.59836,-1.29897 -0.95631,0.0778 -0.94308,0.18796 0.11446,0.9449 1.41229,1.01071 1.4986,3.23228 0.21847,5.61679 -1.44976,2.70052 -3.2633,3.43185 -5.51352,2.22385 -1.30937,-0.70292 -1.78872,-0.18445 -1.19137,1.28813 0.67617,1.66645 -1.13469,4.35234 -3.39333,5.03279 -1.66262,0.5012 -2.26764,0.38356 -3.82712,-0.74393 -1.01889,-0.73644 -2.05449,-1.90606 -2.30151,-2.59892 -0.55642,-1.56007 -1.00494,-1.83126 -1.50122,-0.90686 -0.21026,0.39167 -1.21888,0.85913 -2.24131,1.0386 -2.25359,0.39573 -3.5747,-0.63477 -5.46208,-4.26091 -0.72729,-1.39729 -1.42841,-2.59722 -1.5579,-2.66673 -0.25839,-0.13872 -2.87718,2.16656 -3.25022,2.86144 -0.12814,0.23868 0.36806,0.58518 1.1017,0.77121 2.05076,0.51649 3.16558,3.86458 1.79015,5.37549 -0.57457,0.63129 -1.79869,1.21358 -2.71992,1.29423 -1.54818,0.13562 -1.73625,0.0342 -2.48608,-1.33461 -0.4448,-0.81769 -0.63072,-1.81804 -0.4131,-2.22343 0.81368,-1.51567 -0.50157,-1.1058 -2.99728,0.93409 -1.41864,1.159 -3.05147,2.20337 -3.62876,2.32037 -2.01115,0.40772 -1.3557,-0.87834 1.38581,-2.71823 2.80919,-1.88579 7.61744,-6.16013 8.24527,-7.32964 0.37875,-0.70546 -0.86037,-0.90861 -8.01683,-1.31533 -3.57889,-0.20311 -3.9972,-0.0675 -7.58682,2.46195 -4.21381,2.96884 -4.6596,3.4521 -3.3414,3.61948 2.09672,0.26598 2.82263,3.7199 1.35596,6.45188 -2.4316,4.52952 -8.42853,3.57212 -7.87974,-1.25788 l 0.24995,-2.19842 -3.58261,2.04171 c -5.55409,3.16516 -5.92715,3.3152 -3.61971,1.45473 z m 18.36632,-14.04483 c 1.46566,-0.44161 1.47941,-1.0922 0.0206,-0.99626 -1.34557,0.0885 -2.0746,0.66474 -1.33964,1.05931 0.21965,0.11793 0.81314,0.0894 1.31891,-0.0631 z m 27.78504,-1.2432 c -0.98169,-1.45637 -1.40891,-1.62853 -1.34258,-0.54097 0.0241,0.38985 0.53663,0.96952 1.14028,1.28805 1.04806,0.56267 1.06034,0.52467 0.20206,-0.74771 z m 5.53421,1.38684 c 0.28408,-0.26733 0.15962,-0.67741 -0.2744,-0.9104 -0.43429,-0.23315 -0.9806,-0.0687 -1.2138,0.36574 -0.473,0.88103 0.68347,1.30413 1.4882,0.54466 z m 2.98937,-10.08223 c -0.26863,-0.48711 -0.7129,-1.00579 -0.98727,-1.15312 -0.27456,-0.14737 -0.2789,0.13047 -0.0103,0.61767 0.26863,0.48655 0.71287,1.00551 0.98727,1.15282 0.27437,0.14727 0.27905,-0.13065 0.01,-0.61737 z m -3.19699,-2.74755 c -0.0769,-0.25487 -0.49792,-0.50281 -0.93483,-0.553 -0.48294,-0.0552 -0.42854,0.12726 0.1397,0.46312 0.51316,0.30563 0.87178,0.34476 0.79529,0.0896 z m 8.15128,-6.48102 c 0.22096,-0.41161 0.19058,-0.86153 -0.0675,-1.00012 -0.6291,-0.33774 -1.49768,0.19942 -1.31337,0.81171 0.26043,0.86345 0.96689,0.95962 1.38091,0.18841 z m 5.26188,0.97187 c 0.0568,-0.10576 -0.39487,-0.59502 -1.00306,-1.08828 -0.60773,-0.49385 -1.09025,-0.64037 -1.07096,-0.32833 0.0338,0.55047 1.86677,1.80266 2.07402,1.41661 z m 4.49985,0.89496 c 0.3194,-0.29973 0.1125,-0.7428 -0.49684,-1.06993 -0.61288,-0.329 -1.21211,-0.23587 -1.46055,0.22683 -0.49215,0.91678 1.13636,1.61822 1.95781,0.8423 z m -75.71056,-45.78536 c 0.42754,-0.38896 1.47989,-0.96094 2.33942,-1.27074 l 1.56252,-0.56322 -1.87569,-1.72522 c -1.03176,-0.94868 -2.10578,-1.96977 -2.38696,-2.26901 -0.70059,-0.7452 -0.82029,-0.38004 -1.0093,3.07729 -0.1764,3.22326 0.1444,3.86736 1.37001,2.7509 z m 117.52555,60.36184 c 0.14729,-0.2743 0.0434,-0.61932 -0.23104,-0.76663 -0.27447,-0.14741 -0.61933,-0.0433 -0.7666,0.23103 -0.14724,0.27419 -0.0435,0.61925 0.23101,0.76662 0.27442,0.14733 0.61947,0.0432 0.76663,-0.23102 z m -0.21254,-1.39947 c 0.31702,-0.18333 0.35737,-0.45077 0.0888,-0.59496 -0.26821,-0.14397 -0.81571,-0.63721 -1.21724,-1.09506 -0.6423,-0.73356 -0.70183,-0.68858 -0.49694,0.37584 0.26461,1.37483 0.78862,1.79826 1.6256,1.31429 z m -121.08753,-69.5034 c 0.14716,-0.27421 -0.40584,-0.86021 -1.22889,-1.30203 -0.82301,-0.44184 -1.61678,-0.57886 -1.76397,-0.30468 -0.14745,0.27462 0.40539,0.86051 1.22838,1.30236 0.82304,0.44183 1.61703,0.57897 1.76448,0.30435 z m 6.48483,3.48136 c 0.14722,-0.27421 0.16698,-0.55274 0.0476,-0.61685 -0.12052,-0.0647 -0.4793,0.0318 -0.79587,0.21511 -0.31708,0.18355 -0.33811,0.46136 -0.0479,0.61715 0.29049,0.15594 0.64884,0.0592 0.79624,-0.21541 z m 0.0312,-1.7454 c -0.16039,-0.53165 -1.48399,-0.33697 -1.80769,0.26599 -0.17756,0.3307 0.12898,0.44648 0.81436,0.30741 0.60453,-0.12247 1.0514,-0.38041 0.99333,-0.5734 z m 4.23886,2.76008 c 0.32698,-0.18856 0.17,-0.38049 -0.36427,-0.4481 -1.04217,-0.13228 -1.3923,0.14049 -0.67472,0.52576 0.25815,0.13856 0.72557,0.10366 1.03899,-0.0777 z m 111.15039,57.01107 1.38131,0.30874 -1.29228,-0.75671 c -1.23132,-0.7213 -2.37403,-0.30681 -3.02239,1.09712 -0.15488,0.32963 0.1337,0.25154 0.63704,-0.17776 0.50303,-0.42829 1.53622,-0.64027 2.29579,-0.47046 z m -120.9808,-63.22939 c 0.0669,-0.12458 0.16711,-0.92895 0.22301,-1.78789 0.12066,-1.84787 -0.76411,-1.99205 -1.68573,-0.27525 -0.47536,0.88543 -0.38148,1.36417 0.34372,1.75351 0.54882,0.29463 1.05283,0.43288 1.119,0.30963 z M 166.6538,143.35605 c 0.96423,-1.33784 1.59795,-2.51582 1.40592,-2.6189 -0.18915,-0.10157 -1.1612,-0.092 -2.16024,0.0209 -0.99878,0.11314 -2.35678,0.13565 -3.01758,0.0501 -1.18308,-0.15314 -1.19147,-0.13848 -0.54369,0.93737 0.36161,0.60085 0.87185,1.8053 1.13356,2.67652 0.61211,2.03711 1.04717,1.89107 3.1792,-1.06756 z m 1.69897,1.03402 c 0.35947,-0.66963 0.42923,-1.33787 0.15473,-1.48524 -0.27432,-0.14727 -0.86736,0.41889 -1.31781,1.25801 -0.47797,0.8903 -0.5425,1.50903 -0.1551,1.48559 0.36563,-0.0222 0.95872,-0.58883 1.31818,-1.25836 z m 6.1626,-3.0181 c 1.13813,-0.23877 2.41334,-0.38219 2.83416,-0.31835 0.42082,0.0632 0.69644,-0.14401 0.61333,-0.46112 -0.21966,-0.83709 -3.72888,-1.06407 -4.85709,-0.31411 -1.97654,1.31413 -1.47968,1.69992 1.4096,1.09358 z m 4.948,-2.4683 c 0.0513,-0.28847 -0.8395,-1.05791 -1.97644,-1.70826 -1.91802,-1.09784 -2.11799,-1.08849 -2.77006,0.12764 l -0.70289,1.31 2.67949,0.39817 c 1.47368,0.21882 2.72023,0.16137 2.7699,-0.12755 z m -5.44238,-2.67822 c 0.44175,-0.82283 0.57889,-1.61681 0.30457,-1.76408 -0.27422,-0.14722 -0.86043,0.40568 -1.30213,1.22851 -0.44198,0.82322 -0.57877,1.61713 -0.30461,1.76435 0.27437,0.14727 0.86024,-0.40556 1.30217,-1.22878 z m 160.22245,86.97841 c -1.83097,-2.12799 -2.57421,-2.52701 -1.49643,-0.80335 0.47532,0.76052 1.31815,1.61435 1.87283,1.89783 0.66254,0.33337 0.53043,-0.0404 -0.3764,-1.09448 z m 12.04336,4.66347 c 0.2931,-0.0884 0.0467,-0.4219 -0.5475,-0.74091 -0.59439,-0.31909 -1.19081,-0.37561 -1.32493,-0.12573 -0.27231,0.5072 1.04378,1.1163 1.87206,0.86735 z m 28.26523,13.61696 c -0.619,-0.49265 -1.35065,-1.49722 -1.6264,-2.23162 -0.47919,-1.27603 -0.50191,-1.27132 -0.51496,0.10366 -0.0103,1.07379 0.40246,1.63947 1.62674,2.23144 1.39486,0.67408 1.4723,0.65808 0.51462,-0.10348 z M 359.6246,229.03882 c 3.31169,0.46472 5.25571,1.11483 8.73782,2.92217 4.10834,2.13215 4.65476,2.27796 6.60439,1.76247 2.28976,-0.60576 2.77432,-0.98404 1.87801,-1.46521 -0.94839,-0.50917 -1.00613,-2.66792 -0.11686,-4.36473 0.64878,-1.25002 0.6132,-1.91032 -0.18246,-2.99003 -2.33921,-3.17354 -0.37272,-10.43691 3.42945,-12.66782 2.23443,-1.31096 2.34061,-1.45891 1.40748,-1.95985 -1.42642,-0.76576 -3.3972,0.87397 -5.29154,4.40264 -1.72709,3.21706 -1.97731,3.45366 -4.53929,4.26585 -2.97154,0.94321 -3.97979,2.23102 -4.76867,6.09132 -0.63354,3.10038 -1.63496,3.38478 -3.81712,1.08542 -1.46523,-1.54331 -3.14613,-5.07394 -2.75894,-5.79516 0.0871,-0.16214 1.41018,-0.74127 2.94093,-1.28847 2.75449,-0.98499 4.13832,-2.38128 3.48281,-3.51428 -0.18661,-0.32126 -0.11544,-0.71467 0.15767,-0.87265 0.27209,-0.15864 0.31792,-0.59229 0.10617,-0.96205 -0.25781,-0.44548 -0.37293,-0.38467 -0.33864,0.17839 0.0305,0.50122 -0.11715,0.66179 -0.3566,0.38981 -0.58164,-0.65853 -1.55559,-7.18374 -1.03042,-6.9018 0.23902,0.1283 0.53316,0.71996 0.65386,1.31501 0.33923,1.6733 1.39637,1.93257 1.85918,0.4559 0.57245,-1.82541 3.61675,-2.80799 6.78161,-2.18791 1.905,0.37324 2.28315,0.3202 1.38999,-0.19522 -1.49966,-0.86542 -5.78162,-1.20171 -7.32057,-0.57522 -1.426,0.58091 -2.62483,-0.0599 -4.24323,-2.27796 -1.45341,-1.98023 -1.4106,-4.75073 0.1342,-8.65847 0.88281,-2.23353 1.21698,-2.56981 3.05321,-3.08324 4.75803,-1.32874 7.58216,0.0196 8.27228,3.94949 l 0.34957,1.99081 1.3114,-3.28304 c 1.29239,-3.23553 1.35001,-3.29506 3.94012,-4.07564 1.63537,-0.49292 3.80453,-0.54901 5.73953,-0.14862 3.94753,0.81683 4.81648,1.31699 6.6344,3.82048 0.81291,1.11913 1.69447,2.17022 1.95922,2.33532 1.11818,0.69729 0.94882,4.11801 -0.34679,7.01549 -1.3784,3.08223 -1.33874,3.57031 0.25035,3.09149 0.70866,-0.21365 1.07905,0.22948 1.64308,1.9663 0.40098,1.23315 0.58508,2.50928 0.40971,2.83592 -0.17529,0.32652 -0.13255,1.05264 0.0949,1.61332 0.22744,0.56067 0.21141,2.00906 -0.0356,3.21855 -0.36979,1.80916 -0.89342,2.6444 -2.95434,4.71212 -3.02006,3.03052 -4.90456,3.34378 -6.49835,1.08075 -0.55301,-0.78531 -1.13504,-1.60573 -1.29289,-1.8229 -0.15785,-0.21691 -0.63281,0.60161 -1.05733,1.81808 -0.50226,1.44632 -1.12297,2.35635 -1.78792,2.62731 -0.84577,0.34301 -0.85884,0.59693 -0.077,1.4876 0.82368,0.93858 1.08625,0.92183 2.0828,-0.13195 2.1368,-2.25984 5.66037,-1.6642 8.50829,1.43809 1.02796,1.11961 1.59742,1.29958 3.63037,1.14572 2.73556,-0.20711 2.96638,-0.49937 5.11712,-6.48297 1.6101,-4.48001 2.1186,-4.89527 4.47236,-3.65197 0.7693,0.41296 1.54623,0.25289 2.41176,-0.48231 0.70106,-0.59563 2.21652,-1.81388 3.3674,-2.70743 2.80041,-2.17397 3.57397,-3.79219 3.13185,-6.55188 -0.20315,-1.26748 -0.29332,-2.44679 -0.2001,-2.6204 0.0932,-0.17365 -0.15632,-1.52426 -0.55481,-3.00062 -0.69935,-2.59146 -2.18196,-3.6428 -2.42599,-1.72063 -0.13674,1.07558 -3.59275,4.8772 -4.55081,5.00536 -0.38698,0.0519 -1.21584,-0.17611 -1.84181,-0.50678 -1.11088,-0.59638 -1.1053,-0.62093 0.44981,-1.51589 0.96243,-0.55446 1.18412,-0.81501 0.56375,-0.66108 -1.79279,0.44262 -3.2575,-0.81036 -3.34124,-2.8579 -0.0429,-1.05002 -0.68003,-2.85628 -1.4156,-4.01402 -0.73564,-1.15752 -1.22375,-2.3168 -1.08452,-2.57614 0.13901,-0.25895 0.54453,0.0384 0.90101,0.66125 0.73578,1.28526 1.05248,1.28616 2.05274,0.007 0.94081,-1.20367 -0.12488,-1.64047 -11.14017,-4.56486 -5.97305,-1.58569 -9.10736,-2.14952 -9.96239,-1.7922 -0.68582,0.28689 -1.7563,0.29543 -2.3785,0.0185 -0.62211,-0.27628 -1.11876,-0.30006 -1.10384,-0.0521 0.0346,0.56359 -2.08097,0.0871 -3.9025,-0.87919 -0.85259,-0.4577 -1.52016,-0.46024 -1.75781,-0.0175 -0.21016,0.39145 -1.58914,0.95237 -3.06453,1.24621 -2.87372,0.57275 -4.59518,-0.0369 -7.23223,-2.56156 -1.44484,-1.38324 -1.47688,-1.63304 -0.53176,-4.13824 0.9929,-2.63163 2.6316,-4.36222 3.62521,-3.82882 0.87503,0.46977 1.27868,-1.18356 0.55484,-2.27271 -1.01349,-1.52419 0.68077,-4.38806 3.71985,-6.28823 1.33586,-0.83541 2.38474,-1.66599 2.33066,-1.84581 -0.17586,-0.58338 -4.94641,-0.44704 -7.10258,0.20278 -2.60307,0.78422 -4.11657,3.32036 -4.71223,7.89612 -0.49792,3.82492 -1.55456,5.87309 -6.13177,11.88606 -2.95611,3.8829 -3.71496,5.22319 -4.77655,8.4367 -1.80208,5.45485 -1.95524,13.21416 -0.19635,9.93774 0.39762,-0.7406 1.04058,-0.73001 3.11127,0.0512 3.2717,1.23454 4.50503,2.63707 4.99266,5.68301 0.48773,3.04326 0.0119,3.89342 -2.37906,4.25077 -1.84467,0.27577 -1.87751,0.31152 -0.81901,0.89942 1.18737,0.66101 1.58009,2.739 0.96631,5.12496 -0.48549,1.88719 -3.14857,2.71986 -5.19107,1.62335 -1.92869,-1.03539 -4.22323,-5.378 -3.34286,-6.326 0.4853,-0.52398 0.39378,-0.79494 -0.32461,-0.96796 -1.27196,-0.30704 -1.8025,1.5683 -0.84913,3.00215 0.37669,0.56645 0.9543,1.9812 1.28413,3.14402 0.3294,1.16285 0.86122,2.43448 1.18112,2.82625 0.98679,1.20659 4.99439,2.55532 9.45582,3.18098 z m -16.25803,-9.18406 c 0.72048,-0.80758 0.85994,-1.21734 0.40761,-1.18914 -0.37941,0.0222 -1.00494,0.6276 -1.38903,1.34303 -0.83942,1.56361 -0.50353,1.51093 0.98165,-0.15378 z m -0.91343,-1.17022 c 0.46755,-0.87098 0.33502,-1.47092 -0.48969,-2.22194 -1.58022,-1.43888 -2.00951,-1.10106 -1.40647,1.10288 0.64749,2.37366 1.08426,2.63137 1.89619,1.11895 z M 81.11107,76.407761 c -0.653545,-1.422879 -1.685682,-2.175884 -2.050519,-1.496275 -0.293317,0.546288 0.37764,1.42121 1.678488,2.189345 0.937051,0.554197 0.941411,0.546021 0.372031,-0.69307 z M 346.59872,219.34123 c 0.34872,-0.64957 -0.0124,-1.40006 -0.65487,-1.36077 -0.68715,0.0417 -0.71491,1.16065 -0.0376,1.52426 0.25816,0.13857 0.56965,0.0653 0.6925,-0.16349 z m 37.47132,17.75992 c 0.13989,-0.26055 0.0563,-0.68397 -0.18582,-0.94032 -0.24238,-0.25602 -0.64098,-0.0926 -0.88646,0.36467 -0.24556,0.45744 -0.16179,0.88043 0.18587,0.94041 0.34777,0.0595 0.74647,-0.10409 0.88641,-0.36476 z M 79.315216,68.012952 c 1.129448,-2.650781 1.027747,-2.960291 -0.763699,-2.321428 -0.793486,0.282945 -1.805197,0.33065 -2.24803,0.105251 -0.556688,-0.276569 -0.544142,0.22397 0.03276,1.62105 1.219806,2.955184 1.914128,3.093852 2.978914,0.595127 z M 351.94867,215.81331 c 0.31184,-0.003 0.3112,-0.40878 -0.004,-0.90122 -0.67175,-1.05255 -1.73326,-1.10541 -2.26677,-0.1116 -0.34917,0.65039 0.50697,1.03227 2.2701,1.01231 z m 36.61246,20.41856 c 1.33678,0.16967 1.12181,-0.88675 -0.24746,-1.21722 -0.62241,-0.14951 -1.11467,-0.008 -1.09498,0.3156 0.0426,0.69852 0.11237,0.74541 1.34292,0.90069 z m -38.82218,-22.74004 c 0.77195,-1.43791 -0.0617,-1.65875 -1.28577,-0.34097 -0.52398,0.56377 -0.55697,0.99629 -0.10133,1.24092 0.42039,0.22569 0.97663,-0.13536 1.3871,-0.89995 z M 113.31734,82.270792 c 1.03529,-1.476377 1.69228,-2.786144 1.46236,-2.909541 -0.23027,-0.123613 -1.54596,-0.107373 -2.9236,0.03675 -1.37731,0.144192 -2.74113,0.135064 -3.02993,-0.01984 -1.08079,-0.580231 -0.9657,0.664948 0.17651,1.908778 0.65162,0.710147 1.18425,1.922677 1.18316,2.695049 -0.004,1.943973 0.92332,1.437875 3.13095,-1.711164 z m 2.53887,3.302903 c -0.17142,-0.569063 -0.34089,-0.408943 -0.56941,0.536863 -0.18675,0.768935 -0.081,1.117074 0.2441,0.810231 0.3139,-0.295214 0.46144,-0.900718 0.32531,-1.347094 z M 393.49812,236.08288 c 0.54055,-0.0385 0.91239,-0.30398 0.82638,-0.58971 -0.21148,-0.70148 -1.9444,-0.8836 -2.28944,-0.24085 -0.34015,0.63361 0.16967,0.92293 1.46272,0.83117 z M 117.89355,83.302138 c -0.31633,-0.688631 -0.78266,-1.372603 -1.03608,-1.520184 -0.25831,-0.1387 -0.20301,0.295087 0.11412,0.984427 0.31651,0.688528 0.78255,1.372581 1.03597,1.520195 0.25811,0.138539 0.20304,-0.29528 -0.11401,-0.984438 z m 3.29335,-3.071916 c 2.36159,-0.624789 2.38355,-0.648128 1.20531,-1.280665 -1.42396,-0.764463 -2.8539,-0.436218 -3.52194,0.80817 -0.63807,1.188535 -0.49803,1.216795 2.31663,0.472495 z M 405.47819,232.95384 c 0.19452,-0.36237 -1.28434,-2.72026 -1.92071,-3.0619 -0.76481,-0.41057 -0.47882,0.89194 0.42267,1.96213 0.59431,0.70321 1.12405,1.3326 1.17702,1.39854 0.0519,0.0646 0.19722,-0.0689 0.32071,-0.29895 z M 121.10274,74.402137 c 0.27728,-0.51644 0.35385,-1.197928 0.17052,-1.514899 -0.19447,-0.337661 -0.67977,0.06951 -1.16822,0.979303 -0.48849,0.909955 -0.55922,1.538576 -0.17073,1.514816 0.36561,-0.02249 0.89125,-0.462859 1.16843,-0.97922 z M 336.64689,188.22684 c 0.12496,-0.67151 -0.0496,-1.20303 -0.38978,-1.18226 -0.37121,0.0214 -0.619,0.55587 -0.6209,1.33734 -0.004,1.60924 0.69884,1.50135 1.00954,-0.15568 z m 41.63282,21.77577 c 0.51621,-0.96155 -0.40838,-1.38055 -1.07243,-0.48525 -0.34692,0.46789 -0.31531,0.88231 0.0717,0.94896 0.37844,0.0656 0.82868,-0.14319 1.00053,-0.46332 z m -30.05534,-17.99678 c 0.13435,-0.55329 -0.12608,-0.33712 -0.5782,0.48065 -0.45902,0.8138 -0.56038,1.27097 -0.24362,1.00573 0.3171,-0.26482 0.68789,-0.93324 0.82047,-1.48709 z m 37.79165,21.66903 c 0.067,-0.52313 0.23974,-1.17318 0.38518,-1.44412 0.35211,-0.6559 -1.94299,-1.4611 -2.54169,-0.89156 -0.25945,0.24397 -0.089,0.96634 0.37433,1.60327 1.19343,1.6398 1.64352,1.82478 1.78179,0.73313 z m 36.26475,17.69357 c 0.70474,-0.86021 0.44228,-1.08056 -1.29299,-1.08342 -0.69318,0 -1.24442,0.25567 -1.22537,0.57021 0.0574,0.94001 1.86746,1.3087 2.51836,0.51321 z m 1.49254,1.02205 c 0.29443,-0.5484 0.31118,-1.11815 0.0368,-1.26547 -0.2744,-0.14732 -0.73994,0.18153 -1.03434,0.72993 -0.29459,0.54873 -0.31139,1.11832 -0.037,1.26564 0.27443,0.14732 0.73999,-0.18137 1.03458,-0.7301 z m -45.84822,-26.57445 c 0.46051,-0.13827 0.43789,-1.19544 -0.0641,-2.87277 -0.97883,-3.27687 -1.30559,-3.49372 -2.34482,-1.55789 -0.4517,0.84135 -1.32181,1.86205 -1.93373,2.26896 -1.06918,0.71085 -1.02061,0.77129 1.25089,1.56014 1.29982,0.4513 2.69108,0.72221 3.09179,0.60156 z m 7.98936,4.32313 c 0.86712,0.11279 1.5593,-0.0831 1.53773,-0.43545 -0.0445,-0.72917 -2.96005,-1.09897 -3.32367,-0.42159 -0.28628,0.53324 -0.12967,0.60815 1.78562,0.85765 z m 38.06153,18.2825 c 0.50551,-0.9416 -0.32337,-2.984 -1.72889,-4.26051 -0.65323,-0.59354 -1.08051,-1.27868 -0.94914,-1.52336 0.13128,-0.24458 -0.21013,-0.68593 -0.75896,-0.98055 -0.55433,-0.29758 -1.17615,-0.20293 -1.39933,0.21275 -0.22098,0.41161 -0.056,0.93395 0.36645,1.1607 1.09702,0.58894 3.687,4.45551 3.3745,5.03761 -0.14433,0.26882 -0.038,0.60927 0.23632,0.75653 0.27464,0.14743 0.66104,-0.0343 0.85905,-0.40317 z m 5.62383,-0.003 c 2.39294,0.21119 2.75981,-0.24262 1.4333,-1.77133 -0.54608,-0.62897 -0.84529,-1.41856 -0.66487,-1.75467 0.20224,-0.37671 0.0646,-0.5185 -0.35986,-0.37059 -0.84712,0.29667 -3.48523,3.74215 -2.85547,3.72922 0.24874,-0.004 1.35078,0.0699 2.44727,0.16666 z m -86.68439,-46.50604 c 0.1473,-0.27429 -0.1362,-0.71586 -0.63018,-0.98105 -0.49377,-0.26505 -1.01103,-0.85706 -1.14901,-1.31543 -0.18079,-0.60015 -0.42809,-0.73122 -0.88032,-0.47259 -0.35454,0.20539 -0.23431,0.83949 0.27498,1.44806 1.21619,1.45405 2.06248,1.92095 2.38631,1.31778 z m -37.85917,-22.84386 c 0.37047,-0.69011 0.16314,-0.99914 -0.89236,-1.33016 -1.62597,-0.5097 -1.8365,-0.28732 -1.12821,1.19077 0.63013,1.31552 1.36215,1.36587 2.02057,0.13939 z m 121.44452,62.40381 c -0.23024,-0.75351 -0.31827,-0.72681 -0.42913,0.12938 -0.0774,0.59206 0.0534,1.01915 0.28951,0.94793 0.2355,-0.0726 0.29861,-0.55627 0.13962,-1.07731 z M 78.748073,33.67014 c 0.512448,0.275061 0.605399,0.147717 0.395449,-0.543639 -0.20878,-0.691357 -0.647703,-0.814626 -1.881955,-0.52832 -1.434145,0.332898 -1.523918,0.297206 -0.823222,-0.327872 0.826477,-0.736917 0.535065,-1.09683 -1.049366,-1.297755 -1.419008,-0.180128 -1.521746,0.53729 -0.272786,1.90635 0.834017,0.914267 1.344168,1.120854 2.037295,0.825976 0.50882,-0.216429 1.225656,-0.232066 1.592947,-0.03495 z m 2.185678,-6.537457 c 0.294717,-0.548905 0.311462,-1.118155 0.03693,-1.265528 -0.274402,-0.14732 -0.739693,0.181107 -1.03442,0.730064 -0.294508,0.548587 -0.311092,1.117785 -0.03674,1.265132 0.274452,0.147346 0.739619,-0.181081 1.034118,-0.729668 z m 2.317639,1.179962 c 1.499423,-0.534564 1.501034,-0.543137 0.176797,-1.029547 -0.745728,-0.273182 -1.615069,-0.144594 -1.96977,0.293026 -0.858308,1.059313 -0.04699,1.392555 1.79287,0.736733 z m 310.59305,160.782115 2.69996,0.66315 -0.79033,-2.48156 c -0.89366,-2.8059 -1.55832,-3.40227 -2.57371,-2.30907 -0.64794,0.69771 -3.55653,0.88773 -6.05131,0.39555 -0.57963,-0.11435 -1.03399,0.11676 -1.00976,0.51343 0.0482,0.79121 3.21622,2.11119 7.72515,3.2185 z m -16.19012,-8.45111 c 0.14732,-0.2744 -0.0819,-0.6867 -0.50978,-0.91639 -0.4278,-0.22968 -0.7594,-0.11845 -0.73739,0.24686 0.0225,0.36547 0.25188,0.77785 0.50991,0.91635 0.25826,0.13865 0.58999,0.0275 0.73726,-0.24682 z m 3.85156,-1.78798 c 0.8095,0.0706 0.97796,-0.0392 0.49419,-0.32224 -0.40166,-0.2392 -1.18697,-0.39226 -1.74117,-0.34718 -1.22843,0.0998 -0.44079,0.52269 1.24698,0.66942 z m 4.2531,-2.53624 c 0.22098,-0.41161 0.0651,-0.92893 -0.34644,-1.14985 -0.77894,-0.41818 -1.30646,0.0586 -1.04064,0.9407 0.26586,0.88235 0.9688,0.9883 1.38708,0.20915 z m -5.12492,-8.92607 c 0.34845,-0.20092 -0.16312,-0.2963 -1.13599,-0.2111 -0.97296,0.0853 -1.81946,0.24921 -1.88143,0.36462 -0.19362,0.36073 2.35246,0.2314 3.01742,-0.15352 z m -27.99514,-17.68993 c 2.02443,-3.14648 2.03075,-3.65823 0.0392,-3.15976 -0.87545,0.21932 -2.23673,0.38804 -3.0249,0.37465 -1.59541,-0.0265 -2.32674,0.73655 -1.2568,1.31093 0.38106,0.20458 0.98587,1.09792 1.34398,1.98509 0.3578,0.88741 0.79359,1.69961 0.96785,1.80507 0.17915,0.0962 1.0432,-0.93668 1.93064,-2.31598 z m 4.69849,0.0408 c 0.70284,-0.40653 0.0738,-1.92293 -0.77602,-1.87099 -0.29197,0.0183 -0.70387,0.35562 -0.91612,0.75093 -0.4544,0.84646 0.76732,1.65521 1.6922,1.11996 z m 4.59706,-6.20921 c 2.2225,-0.19463 2.4258,-0.79865 0.58065,-1.72247 -1.2447,-0.62232 -1.63293,-0.54911 -2.14786,0.41014 -0.74562,1.38893 -0.60999,1.50265 1.56721,1.31233 z m -1.80576,-2.84387 c 0.0615,-0.48575 -0.0883,-0.99082 -0.33345,-1.12244 -0.51181,-0.27475 -1.2319,0.85097 -1.01174,1.58165 0.24656,0.81785 1.22581,0.48313 1.34527,-0.45919 z m -45.11987,-28.619 c 1.03066,-0.16302 1.18541,-0.38021 1.03611,-1.45029 -0.16359,-1.17266 -0.28771,-1.1801 -1.80546,-0.10678 -1.76139,1.24528 -1.4351,1.90558 0.76935,1.55707 z m 3.12163,-1.27903 c 0,-0.73583 -0.27889,-1.32078 -0.62187,-1.29981 -0.35351,0.0214 -0.55769,0.79253 -0.47096,1.78067 0.1729,1.97379 1.09024,1.57051 1.09283,-0.48086 z M 286.85119,88.842408 c 0.14719,-0.274215 0.16905,-0.551789 0.0478,-0.616927 -0.12065,-0.06477 -0.47924,0.03199 -0.79608,0.215207 -0.31699,0.183335 -0.33811,0.461224 -0.0478,0.61704 0.29046,0.155998 0.64876,0.05911 0.7961,-0.21532 z m 29.88983,15.098602 c 0.46918,-0.83277 -0.4734,-1.33614 -1.24775,-0.66987 -0.51152,0.44144 -0.47588,0.71795 0.11787,0.89366 0.47294,0.13851 0.98155,0.0376 1.13133,-0.22643 z m 16.43038,8.36256 c 0.0553,-0.48289 -0.12721,-0.42852 -0.4631,0.13972 -0.30461,0.51388 -0.34478,0.87186 -0.0894,0.7955 0.25493,-0.0769 0.50295,-0.49824 0.55203,-0.93548 z m -11.49141,-9.37294 c 1.16814,-0.84799 2.07521,-1.70279 2.01602,-1.89887 -0.22095,-0.73342 -4.06826,-2.611092 -4.11779,-2.009082 -0.028,0.338505 -0.2278,1.604962 -0.44452,2.813972 -0.21662,1.20896 -0.21016,2.29672 0.0146,2.41731 0.22452,0.12052 1.36363,-0.47463 2.53153,-1.32288 z m 5.59163,-2.01073 c 0.75057,-0.0533 0.93109,-0.28832 0.73186,-0.951311 -0.19994,-0.663339 -0.54364,-0.695801 -1.39245,-0.131656 -1.20261,0.799677 -0.95903,1.198827 0.66141,1.083387 z m 114.09897,42.88906 c 0.40796,-0.35279 0.4323,-0.59767 0.0559,-0.5747 -0.36121,0.0225 -0.77002,0.25146 -0.90853,0.50951 -0.38531,0.71768 0.057,0.75149 0.85265,0.0652 z M 407.59213,78.194412 c 0.21223,-0.395314 0.2362,-0.978032 0.0528,-1.29482 -0.18338,-0.317101 -0.39087,-0.468897 -0.46114,-0.338003 -0.0698,0.130096 -0.45403,0.520433 -0.85421,0.864526 -0.47673,0.41124 -0.45016,0.77478 0.0754,1.056905 0.44072,0.236585 0.97499,0.106736 1.18727,-0.288713 z m 2.23081,-0.146155 c 0.0617,-0.48567 -0.0884,-0.99087 -0.33321,-1.122233 -0.51187,-0.274823 -1.23206,0.85077 -1.01182,1.581441 0.24669,0.817777 1.22589,0.483211 1.3453,-0.459055 z m -1.58993,-3.441121 c 0.2296,-0.427699 0.11366,-0.759116 -0.25771,-0.736494 -0.37092,0.02196 -0.65812,0.319272 -0.63735,0.659421 0.0561,0.921467 0.42471,0.953214 0.89506,0.07707 z m 4.31392,-1.98374 c 2.18004,-0.877835 2.38543,-1.584087 0.80243,-2.758678 -1.50434,-1.116357 -1.51527,-1.109398 -2.27975,1.403217 -0.62611,2.058776 -0.51708,2.158762 1.47732,1.355461 z M 99.726492,195.96448 c -0.548637,-0.93284 -1.144214,-2.52992 -1.32339,-3.54944 -0.178755,-1.01968 -0.57367,-1.98708 -0.877203,-2.15003 -0.708527,-0.38037 -0.643649,-0.48165 1.79853,-2.81237 2.060711,-1.96648 4.789841,-2.64723 6.636681,-1.65576 1.45798,0.78269 2.62974,3.95058 2.18525,5.90767 -0.75724,3.33442 -4.02895,6.42165 -6.45319,6.08894 -0.53332,-0.0726 -1.41873,-0.89511 -1.966678,-1.82901 z m 111.792438,33.20219 c -3.65469,-3.81299 -5.31823,-7.5053 -4.68936,-10.40815 0.68892,-3.17849 3.79852,-4.73438 8.12067,-4.06313 1.22332,0.19023 2.36683,0.0802 2.541,-0.24416 0.56167,-1.04624 3.10574,0.15224 3.10397,1.46233 0,0.64781 0.76401,1.89915 1.69934,2.78056 0.93565,0.88148 1.75921,2.27333 1.83041,3.09276 0.17405,1.99949 -1.1449,5.50321 -2.65864,7.06211 -1.96603,2.02477 -8.12261,2.22154 -9.94744,0.31779 z M 73.851355,129.74884 c -0.814416,-2.37222 -0.818623,-2.3627 1.633194,-3.78147 3.450696,-1.99634 6.095865,-1.2496 6.644693,1.87589 0.256376,1.4605 0.0504,2.29066 -0.845079,3.40186 -0.971841,1.20652 -1.028594,1.56797 -0.321921,2.01331 0.474027,0.29906 -0.120862,0.22514 -1.327389,-0.16649 -1.204087,-0.39047 -2.845353,-0.85752 -3.647014,-1.03823 -1.117579,-0.25172 -1.616233,-0.79028 -2.136484,-2.30487 z m 182.548225,82.84857 c 0.50803,-0.94629 4.05747,-0.40863 6.71169,1.01629 1.47963,0.79433 4.18438,1.6874 6.01064,1.98456 1.82626,0.29715 4.38079,0.92011 5.67709,1.38422 3.49226,1.25042 4.02704,1.10518 4.04998,-1.10022 0.0209,-2.01041 -1.0853,-5.61771 -2.64809,-8.63418 -1.31228,-2.53357 -1.55387,-2.58616 -1.48971,-0.32586 0.0451,1.58637 -0.12207,1.96102 -1.03925,2.33376 -0.60127,0.24392 -1.61124,0.16587 -2.24399,-0.17383 -2.55812,-1.37332 -1.9396,-5.19901 0.88652,-5.48037 0.84005,-0.0834 1.4533,-0.41431 1.36249,-0.73525 -0.0907,-0.32075 -0.87505,-0.41206 -1.74344,-0.20298 -1.56612,0.37719 -1.57118,0.37274 -0.62952,-0.55172 0.74273,-0.72966 0.75107,-0.96972 0.036,-1.1051 -3.04443,-0.57667 -2.85358,-0.64808 -2.46509,0.91976 0.19743,0.79725 0.61748,1.43357 0.93321,1.41452 0.31599,-0.0201 0.0789,0.65559 -0.52634,1.49971 -0.60534,0.84407 -1.20917,1.70037 -1.34167,1.90302 -0.13126,0.2033 -0.93464,0.27815 -1.782,0.16808 -1.60457,-0.20883 -2.56112,-1.19033 -3.18852,-3.27323 -0.45305,-1.50273 1.44767,-3.9532 2.86076,-3.68822 1.42882,0.26787 1.76736,-0.41354 0.87407,-1.75768 -0.50075,-0.75345 -0.43661,-1.57993 0.21717,-2.79778 0.72028,-1.34173 0.72361,-1.83806 0.0154,-2.21827 -0.50149,-0.26923 -1.57155,-1.71707 -2.37797,-3.21754 -2.08545,-3.88094 -1.28908,-6.45443 2.98804,-9.65425 2.74786,-2.05584 6.04769,-2.99443 9.38615,-2.66994 2.92267,0.28422 4.23865,1.0948 5.14406,3.16894 0.59417,1.3606 0.99438,1.71416 1.76363,1.55811 0.57348,-0.11618 1.01081,0.0564 1.03209,0.40825 0.0196,0.33452 0.97948,1.04873 2.13114,1.58596 3.22654,1.50384 6.19543,4.14089 6.85723,6.08939 1.16284,3.42429 0.44296,8.16311 -1.38094,9.09106 -2.65409,1.35043 -9.10661,-2.1975 -10.53738,-5.79327 l -0.81592,-2.05094 -1.21134,1.05164 c -1.78739,1.55093 -1.86362,1.96739 -0.42653,2.32913 2.01885,0.50885 3.34351,2.46848 3.12732,4.62629 -0.1732,1.7255 -0.33745,1.98189 -1.36171,2.12498 -1.42742,0.19938 -1.74495,0.67336 -0.79409,1.18385 0.91493,0.49117 0.55856,2.4014 -0.73811,3.95581 -0.87111,1.04428 -0.82174,1.6161 0.35782,4.16131 2.05452,4.43296 2.95095,5.51813 6.69589,8.10641 2.4706,1.70736 3.48512,2.73257 3.63194,3.66972 0.59449,3.78746 -1.935,3.64564 -10.70928,-0.59894 -4.22547,-2.04512 -9.71685,-4.22621 -13.63993,-5.41973 -7.00074,-2.12994 -10.08301,-3.49707 -9.66015,-4.28468 z m 20.46515,-11.69769 c 0.0853,-0.21026 0.0496,-0.36697 -0.083,-0.34977 -0.13068,0.0164 -0.4254,-0.42757 -0.65339,-0.98788 -0.22744,-0.56067 -0.64087,-0.95112 -0.91811,-0.86749 -0.87563,0.26379 -0.93749,0.88614 -0.15943,1.60386 0.94641,0.87272 1.61173,1.09341 1.81395,0.60128 z m 10.1491,-13.01019 c 0.14722,-0.27421 0.0301,-0.62624 -0.26058,-0.78224 -0.29049,-0.15595 -0.5101,0.0153 -0.48766,0.38055 0.0225,0.36568 0.13954,0.71779 0.26046,0.78272 0.12065,0.0647 0.34041,-0.10653 0.48778,-0.38103 z M 72.581482,79.198924 c -0.02249,-0.365119 0.309491,-0.47635 0.737264,-0.246665 0.427596,0.229549 0.657175,0.64217 0.510011,0.916278 -0.147317,0.274397 -0.479348,0.385313 -0.737314,0.246753 -0.258128,-0.138567 -0.487572,-0.550865 -0.509961,-0.916366 z M 329.15209,184.80742 c 0.14729,-0.27429 0.47895,-0.38534 0.73718,-0.24672 0.2581,0.13858 0.48747,0.55081 0.50978,0.91617 0.0225,0.36539 -0.30959,0.47654 -0.73705,0.24704 -0.42778,-0.22966 -0.65718,-0.64217 -0.50991,-0.91649 z m 124.95054,4.25379 c 0.45694,-0.85114 0.92641,-2.28447 1.04381,-3.1858 0.14721,-1.13149 0.45926,-1.71278 1.0083,-1.87822 0.54917,-0.16545 0.52938,0.25537 -0.0618,1.35654 -1.34218,2.5001 -0.2462,2.29378 2.70258,-0.50895 1.48535,-1.41158 2.46301,-2.08135 2.17316,-1.48796 -0.56478,1.15466 -6.30767,6.83281 -7.17563,7.09429 -0.28679,0.0865 -0.14722,-0.53911 0.30953,-1.3899 z M 346.02867,117.92176 c -0.46958,-1.02478 -0.9044,-1.96771 -0.96673,-2.09558 -0.0629,-0.12946 0.32062,-0.70715 0.84981,-1.28781 0.61627,-0.67704 1.63251,-0.94967 2.83009,-0.75962 2.59736,0.41178 3.14791,0.79399 3.67813,2.55281 0.61317,2.03438 -0.46752,3.92551 -2.3714,4.15258 -2.06508,0.24559 -3.00705,-0.35515 -4.01818,-2.56146 z m 80.84365,30.95321 c 0.42767,-0.89919 5.87529,-5.83586 5.75826,-5.21729 -0.0607,0.3158 -1.43777,1.74127 -3.06197,3.16668 -1.62404,1.42518 -2.83744,2.34827 -2.69629,2.05061 z M 364.56329,58.175743 c 0.0802,-0.612113 0.0214,-1.536197 -0.13107,-2.053405 -0.55121,-1.8719 3.68429,-4.620101 5.56447,-3.610768 1.23288,0.661908 2.16086,4.308607 1.43838,5.654304 -0.64965,1.210204 -3.45164,2.261235 -4.51146,1.692249 -0.33729,-0.181055 -1.03944,-0.38309 -1.5599,-0.449421 -0.59621,-0.07567 -0.89223,-0.532739 -0.80042,-1.232959 z m 21.14791,5.089472 c -0.47625,-0.994013 -0.21553,-1.913175 1.48656,-5.245153 l 2.0651,-4.039737 2.3663,0.847487 c 1.30183,0.465613 2.71645,1.207611 3.14399,1.648618 1.00584,1.036135 0.69167,4.093528 -0.562,5.47079 -1.28783,1.414568 -3.95661,2.08325 -5.34329,1.338765 -0.86061,-0.461962 -1.16718,-0.341259 -1.38088,0.543798 -0.32134,1.331807 -0.96555,1.127178 -1.77546,-0.56343 z"
       id="path11"
       inkscape:connector-curvature="0"
       inkscape:export-xdpi="25.4"
       inkscape:export-ydpi="25.4" />
  </g>
</svg>
