<?xml version="1.0" encoding="UTF-8" standalone="no"?>
<svg
   xmlns:dc="http://purl.org/dc/elements/1.1/"
   xmlns:cc="http://creativecommons.org/ns#"
   xmlns:rdf="http://www.w3.org/1999/02/22-rdf-syntax-ns#"
   xmlns:svg="http://www.w3.org/2000/svg"
   xmlns="http://www.w3.org/2000/svg"
   xmlns:sodipodi="http://sodipodi.sourceforge.net/DTD/sodipodi-0.dtd"
   xmlns:inkscape="http://www.inkscape.org/namespaces/inkscape"
   width="1024"
   height="1024"
   viewBox="0 0 270.93333 270.93334"
   version="1.1"
   id="svg8"
   inkscape:version="1.0.1 (3bc2e813f5, 2020-09-07)"
   sodipodi:docname="about_picture.svg">
  <defs
     id="defs2" />
  <sodipodi:namedview
     id="base"
     pagecolor="#242424"
     bordercolor="#666666"
     borderopacity="1.0"
     inkscape:pageopacity="0"
     inkscape:pageshadow="2"
     inkscape:zoom="0.24748737"
     inkscape:cx="-98.331158"
     inkscape:cy="348.36427"
     inkscape:document-units="px"
     inkscape:current-layer="layer1"
     inkscape:document-rotation="0"
     showgrid="false"
     units="px"
     inkscape:window-width="1920"
     inkscape:window-height="1017"
     inkscape:window-x="1912"
     inkscape:window-y="-8"
     inkscape:window-maximized="1" />
  <metadata
     id="metadata5">
    <rdf:RDF>
      <cc:Work
         rdf:about="">
        <dc:format>image/svg+xml</dc:format>
        <dc:type
           rdf:resource="http://purl.org/dc/dcmitype/StillImage" />
        <dc:title></dc:title>
      </cc:Work>
    </rdf:RDF>
  </metadata>
  <g
     inkscape:label="Layer 1"
     inkscape:groupmode="layer"
     id="layer1">
    <path
       style="fill:#000000;stroke-width:0.265437"
       d="m 16.428782,263.16928 c 0.486134,-21.28522 1.601212,-30.79501 4.702862,-40.10772 2.577685,-7.73948 5.129838,-11.56834 10.214921,-15.32492 3.863893,-2.85442 10.915324,-6.69982 16.001241,-8.72604 6.0104,-2.39453 20.097632,-6.92507 34.268612,-11.02099 3.868749,-1.11819 8.568281,-2.51126 10.443395,-3.0957 1.875123,-0.58444 3.469846,-1.00207 3.543833,-0.92808 0.07404,0.0739 -0.01164,2.08339 -0.190401,4.46535 -1.006338,13.41266 1.955873,22.8413 11.901845,37.88328 5.22867,7.90767 11.6665,15.34596 18.33084,21.17952 3.45436,3.02375 8.36719,6.63948 9.29953,6.84426 0.58706,0.12894 1.15433,0.0227 1.95199,-0.36549 4.01228,-1.95272 15.0823,-12.36352 20.81226,-19.57287 8.9985,-11.32181 15.43419,-23.16261 17.26009,-31.75628 0.37737,-1.77618 0.46538,-3.57155 0.47139,-9.61617 0.004,-4.08773 -0.0792,-7.82045 -0.18506,-8.29492 -0.13137,-0.58885 -0.0945,-0.86269 0.11609,-0.86269 0.16967,0 2.82438,0.76662 5.89933,1.70361 3.07496,0.93695 10.07009,3.0314 15.54473,4.65432 22.56842,6.69022 30.8049,9.82113 38.65976,14.69563 7.51916,4.66616 10.86839,8.51272 13.44735,15.44411 2.64087,7.09781 4.2514,15.17571 4.94819,24.8184 0.27852,3.85438 0.80261,19.05808 0.80748,23.42486 l 0.003,2.32258 H 135.46657 16.251461 Z m 115.782908,-18.4427 c -4.22889,-3.33422 -7.88916,-6.9651 -10.42512,-10.34143 l -2.23522,-2.97595 5.45278,-13.53527 c 2.99903,-7.4444 5.4491,-13.69137 5.44458,-13.88214 -0.004,-0.19077 -0.56425,-0.76493 -1.24386,-1.2759 -3.07248,-2.31005 -7.16572,-6.8569 -9.01889,-10.01828 l -0.66011,-1.12613 0.9744,-1.3274 c 0.53593,-0.73007 2.24887,-2.52238 3.80656,-3.98292 l 2.83214,-2.65554 8.40157,-5.2e-4 8.40157,-5.3e-4 2.63747,2.50778 c 1.45061,1.3793 3.14521,3.16595 3.76582,3.97037 l 1.12837,1.46256 -1.41718,2.05707 c -0.77946,1.13139 -3.2615,3.95162 -5.51569,6.26719 l -4.09848,4.21012 5.49961,13.65755 5.4996,13.65755 -1.64339,2.18414 c -2.17109,2.88544 -8.47999,9.12992 -11.66001,11.54093 -1.39593,1.05836 -2.65012,1.91563 -2.78709,1.90505 -0.13697,-0.0107 -1.54971,-1.04475 -3.13942,-2.29814 z m -0.82574,-69.2665 c -14.33074,-1.82943 -25.83739,-9.55564 -36.494636,-24.50449 -1.196911,-1.6789 -2.962091,-4.36645 -3.922622,-5.97235 -1.758921,-2.94069 -8.118646,-15.27981 -8.892615,-17.25343 -0.229007,-0.58397 -1.265642,-2.0073 -2.303634,-3.16299 -2.914518,-3.24492 -5.164668,-7.35231 -6.555875,-11.96695 -0.678382,-2.25018 -0.721302,-2.705 -0.738979,-7.83042 -0.01837,-5.333888 -0.005,-5.470367 0.673859,-6.901411 1.174179,-2.474932 3.26295,-4.195123 5.611517,-4.621319 1.185576,-0.215158 1.165732,-0.02378 0.473455,-4.563959 -1.125723,-7.382817 -1.555437,-21.268004 -0.837035,-27.046977 1.465878,-11.791937 5.035304,-19.857902 11.959145,-27.024508 4.78608,-4.953902 8.89929,-7.93589 15.28646,-11.082381 5.99876,-2.955152 12.99262,-5.030578 20.69764,-6.142012 3.70888,-0.534998 15.17085,-0.451664 18.97878,0.137985 7.55297,1.169556 14.01062,3.082366 19.7923,5.862641 16.20002,7.790193 25.77632,21.162224 27.48633,38.380994 0.19828,1.996695 0.24907,5.9446 0.14681,11.413813 -0.155,8.290414 -0.27268,9.987094 -1.1458,16.521229 -0.24858,1.860138 -0.37376,3.460261 -0.2782,3.555832 0.0956,0.09558 0.80177,0.273026 1.56938,0.394374 2.12551,0.336005 3.33283,1.332681 4.58273,3.783193 l 1.05684,2.072002 0.10128,3.687764 c 0.21809,7.94103 -1.85018,14.60216 -6.21636,20.02067 -2.14051,2.65639 -3.86027,5.52603 -7.15841,11.94468 -4.43886,8.63871 -7.40104,13.5377 -11.23352,18.5785 -2.66981,3.51157 -10.14427,11.00715 -13.30799,13.34562 -6.18618,4.57249 -12.06899,6.99816 -19.77511,8.15387 -2.40229,0.36029 -7.53182,0.47838 -9.55574,0.22003 z m 10.23049,-8.31318 c 3.46262,-0.32836 5.16791,-0.76201 8.82928,-2.24526 4.01621,-1.62701 6.46656,-3.10139 9.10786,-5.48021 7.67855,-6.91548 12.85139,-14.79413 20.53494,-31.27638 2.17376,-4.66304 2.93879,-5.93562 5.40331,-8.98825 1.99057,-2.46558 3.84402,-6.06956 4.73718,-9.2113 0.47408,-1.66759 0.60489,-2.80735 0.60931,-5.30877 0.005,-2.96625 -0.0461,-3.2906 -0.74656,-4.717086 -0.81666,-1.663093 -2.2154,-2.847927 -3.3621,-2.847927 -1.77099,0 -3.57392,2.197854 -5.89685,7.188523 -0.76995,1.65417 -1.43698,2.81502 -1.4823,2.57969 -0.0454,-0.23534 0.27622,-2.26071 0.71456,-4.50082 1.71752,-8.777494 2.94847,-17.199822 2.94847,-20.174092 v -1.517925 l -1.12812,-0.135676 c -0.62045,-0.07463 -3.27815,-0.267882 -5.90597,-0.429472 -22.0977,-1.358803 -37.10314,-5.723124 -50.75489,-14.761992 -3.54132,-2.344718 -5.60082,-3.961141 -10.55058,-8.280778 -2.14855,-1.875025 -3.93306,-3.233176 -4.24701,-3.232314 -1.59713,0.0043 -6.76146,2.037195 -9.30089,3.66111 -4.316152,2.760077 -9.798233,9.255534 -12.269635,14.537702 l -0.736811,1.574799 0.01986,6.370501 c 0.02207,7.05415 0.376402,10.08119 2.484806,21.225877 0.579043,3.06078 1.006229,5.61164 0.949295,5.66857 -0.05689,0.057 -0.782559,-1.25285 -1.61249,-2.91065 -1.685473,-3.36678 -3.315528,-5.841005 -4.252644,-6.455031 -0.3425,-0.224407 -1.060702,-0.408022 -1.596025,-0.408022 -0.792028,0 -1.184622,0.211346 -2.108065,1.134791 -1.617314,1.617315 -2.096345,3.397282 -1.906183,7.082932 0.266959,5.17443 2.215008,10.14899 5.50324,14.05323 2.20042,2.61264 3.401274,4.60044 5.307319,8.78529 9.058061,19.88769 17.222233,30.715 26.820553,35.56942 4.31271,2.1812 7.07201,3.03594 11.02877,3.41642 3.38922,0.3259 9.6021,0.34191 12.85833,0.0331 z"
       id="path847" />
  </g>
</svg>
