<?xml version="1.0" encoding="UTF-8" standalone="no"?>
<svg
   xmlns:dc="http://purl.org/dc/elements/1.1/"
   xmlns:cc="http://creativecommons.org/ns#"
   xmlns:rdf="http://www.w3.org/1999/02/22-rdf-syntax-ns#"
   xmlns:svg="http://www.w3.org/2000/svg"
   xmlns="http://www.w3.org/2000/svg"
   xmlns:sodipodi="http://sodipodi.sourceforge.net/DTD/sodipodi-0.dtd"
   xmlns:inkscape="http://www.inkscape.org/namespaces/inkscape"
   width="1024"
   height="1024"
   viewBox="0 0 270.93333 270.93334"
   version="1.1"
   id="svg8"
   inkscape:version="1.0.1 (3bc2e813f5, 2020-09-07)"
   sodipodi:docname="android.svg">
  <defs
     id="defs2" />
  <sodipodi:namedview
     id="base"
     pagecolor="#ffffff"
     bordercolor="#666666"
     borderopacity="1.0"
     inkscape:pageopacity="0.0"
     inkscape:pageshadow="2"
     inkscape:zoom="0.35"
     inkscape:cx="494.28571"
     inkscape:cy="560"
     inkscape:document-units="mm"
     inkscape:current-layer="layer1"
     inkscape:document-rotation="0"
     showgrid="false"
     units="px"
     inkscape:window-width="1920"
     inkscape:window-height="1017"
     inkscape:window-x="1912"
     inkscape:window-y="-8"
     inkscape:window-maximized="1" />
  <metadata
     id="metadata5">
    <rdf:RDF>
      <cc:Work
         rdf:about="">
        <dc:format>image/svg+xml</dc:format>
        <dc:type
           rdf:resource="http://purl.org/dc/dcmitype/StillImage" />
        <dc:title />
      </cc:Work>
    </rdf:RDF>
  </metadata>
  <g
     inkscape:label="Layer 1"
     inkscape:groupmode="layer"
     id="layer1">
    <path
       style="fill:#000000;stroke-width:0.277387"
       d="m 103.89103,270.55419 c -6.118926,-1.32816 -11.364184,-6.62147 -12.670304,-12.78635 -0.331083,-1.56267 -0.40466,-5.38615 -0.408612,-21.23111 l -0.0053,-19.32522 -7.836187,-0.098 c -7.666179,-0.0959 -7.880345,-0.11401 -9.870731,-0.83508 -4.628689,-1.67687 -8.314012,-4.84889 -10.266635,-8.83669 -2.1495,-4.38986 -1.984284,0.69472 -1.984284,-61.06742 V 90.955081 h 74.617213 74.61724 v 55.419209 c 0,61.70882 0.16157,56.68453 -1.96242,61.02327 -1.95976,4.00329 -5.70299,7.23104 -10.28841,8.87161 -1.97829,0.70779 -2.25126,0.7309 -9.85901,0.83503 l -7.82434,0.10708 -0.0869,20.15749 -0.0869,20.15749 -0.6432,1.80301 c -1.00853,2.82715 -2.19493,4.69566 -4.31749,6.7998 -5.17544,5.13055 -12.87831,6.26517 -19.38632,2.85557 -2.39326,-1.25383 -5.62333,-4.54266 -6.92289,-7.04878 -1.88092,-3.62727 -1.85777,-3.3148 -1.86233,-25.14432 l -0.004,-19.62514 h -11.3729 -11.37288 l -0.004,19.62514 c -0.004,21.82952 0.0186,21.51705 -1.86235,25.14432 -1.29955,2.50612 -4.52963,5.79495 -6.92287,7.04878 -3.47873,1.82253 -7.62262,2.39239 -11.41344,1.56955 z M 33.407948,190.66698 c -4.71453,-1.31859 -8.61746,-4.53777 -10.716742,-8.83929 -1.895318,-3.88359 -1.812201,-1.80418 -1.725278,-43.16197 l 0.07842,-37.30861 0.756962,-2.074138 c 1.905801,-5.22213 6.064956,-9.114732 11.44808,-10.71443 2.234777,-0.664101 6.364243,-0.664101 8.59902,0 5.862387,1.742118 10.337654,6.28181 11.789763,11.959508 0.540163,2.11204 0.553856,3.08321 0.549158,38.94487 -0.0053,41.00077 0.09467,38.80527 -1.947265,42.73014 -1.923834,3.69786 -5.35618,6.70056 -9.220317,8.06616 -2.282447,0.8066 -7.393713,1.01814 -9.611801,0.39776 z m 195.815692,-0.0211 c -4.77205,-1.28115 -8.52448,-4.38073 -10.79012,-8.91289 -1.76143,-3.52351 -1.68371,-1.5841 -1.68821,-42.12137 -0.004,-35.99903 0.009,-36.97141 0.54988,-39.08356 1.45211,-5.677698 5.92737,-10.21739 11.78976,-11.959507 2.23478,-0.664101 6.36424,-0.664101 8.59902,0 5.38313,1.599699 9.54227,5.492299 11.44809,10.714429 l 0.75695,2.074138 0.0784,37.30862 c 0.0869,41.35778 0.17005,39.27837 -1.72528,43.16196 -2.13156,4.36766 -6.09784,7.60252 -10.83408,8.83614 -2.05709,0.53582 -6.15523,0.52681 -8.18443,-0.0179 z M 60.851718,82.425415 c 0.0084,-7.682537 2.500136,-17.549081 6.498048,-25.72769 5.576764,-11.40848 14.009748,-20.841568 25.177814,-28.163763 1.785254,-1.170477 3.938184,-2.489867 4.784284,-2.931973 0.84609,-0.442104 1.53859,-0.866239 1.53888,-0.942519 2.7e-4,-0.07628 -2.70008,-5.006845 -6.000815,-10.956807 -3.66142,-6.6001498 -6.004674,-11.1164137 -6.009916,-11.5831858 -0.02044,-1.82130136 2.395401,-2.83807566 3.619558,-1.52337356 0.319624,0.3432672 3.167763,5.30503656 6.329193,11.02615336 3.16143,5.721117 5.894156,10.561501 6.072716,10.756407 0.26127,0.285185 0.63158,0.21864 1.89664,-0.340826 5.7387,-2.537929 14.06553,-4.696119 21.45283,-5.560259 4.65345,-0.54434 13.87146,-0.542767 18.53849,0.0032 6.92267,0.809787 13.83458,2.536485 19.98161,4.991704 2.34779,0.93774 3.12206,1.141842 3.35838,0.885278 0.16891,-0.183393 2.89373,-5.014353 6.05517,-10.73547 3.16143,-5.7211168 6.00957,-10.68288626 6.32919,-11.02615306 1.2242,-1.3147382 3.6402,-0.2978677 3.61943,1.52337326 -0.005,0.4665581 -2.37404,5.032275 -6.07086,11.7016128 -3.33417,6.015096 -5.93622,10.97851 -5.78232,11.02981 0.15389,0.0513 1.58676,0.871778 3.18413,1.823287 12.68597,7.556667 21.86152,17.301676 28.00787,29.746151 4.10037,8.30196 6.65186,18.255756 6.65186,25.949937 v 2.204893 H 135.46668 60.849454 l 0.0021,-2.149753 z M 104.07691,56.720983 c 1.10133,-0.569517 2.41741,-2.135503 2.82006,-3.355556 0.54625,-1.655173 0.24585,-4.311315 -0.63879,-5.648091 -1.14853,-1.735564 -2.68996,-2.625863 -4.77637,-2.758714 -2.103106,-0.133918 -3.455536,0.27225 -4.780746,1.435783 -3.178181,2.790455 -2.56287,8.417034 1.13146,10.346165 1.76004,0.919071 4.445526,0.910644 6.244386,-0.01959 z m 69.04132,0.0106 c 3.67711,-1.920564 4.28422,-7.553777 1.11406,-10.337172 -1.32521,-1.163532 -2.67763,-1.5697 -4.78074,-1.435782 -2.08641,0.132851 -3.62784,1.02315 -4.77639,2.758713 -0.88463,1.336776 -1.18504,3.992918 -0.63878,5.648092 0.40499,1.227145 1.72039,2.786898 2.83745,3.364549 1.78897,0.925113 4.47493,0.9258 6.2444,0.0017 z"
       id="path844" />
  </g>
</svg>
