<?xml version="1.0" encoding="UTF-8" standalone="no"?>
<svg
   xmlns:dc="http://purl.org/dc/elements/1.1/"
   xmlns:cc="http://creativecommons.org/ns#"
   xmlns:rdf="http://www.w3.org/1999/02/22-rdf-syntax-ns#"
   xmlns:svg="http://www.w3.org/2000/svg"
   xmlns="http://www.w3.org/2000/svg"
   xmlns:sodipodi="http://sodipodi.sourceforge.net/DTD/sodipodi-0.dtd"
   xmlns:inkscape="http://www.inkscape.org/namespaces/inkscape"
   width="1024"
   height="1024"
   viewBox="0 0 270.93333 270.93334"
   version="1.1"
   id="svg8"
   inkscape:version="1.0.1 (3bc2e813f5, 2020-09-07)"
   sodipodi:docname="apple.svg">
  <defs
     id="defs2" />
  <sodipodi:namedview
     id="base"
     pagecolor="#ffffff"
     bordercolor="#666666"
     borderopacity="1.0"
     inkscape:pageopacity="0.0"
     inkscape:pageshadow="2"
     inkscape:zoom="0.35"
     inkscape:cx="494.28571"
     inkscape:cy="560"
     inkscape:document-units="mm"
     inkscape:current-layer="layer1"
     inkscape:document-rotation="0"
     showgrid="false"
     units="px"
     inkscape:window-width="1920"
     inkscape:window-height="1017"
     inkscape:window-x="-8"
     inkscape:window-y="-8"
     inkscape:window-maximized="1" />
  <metadata
     id="metadata5">
    <rdf:RDF>
      <cc:Work
         rdf:about="">
        <dc:format>image/svg+xml</dc:format>
        <dc:type
           rdf:resource="http://purl.org/dc/dcmitype/StillImage" />
        <dc:title />
      </cc:Work>
    </rdf:RDF>
  </metadata>
  <g
     inkscape:label="Layer 1"
     inkscape:groupmode="layer"
     id="layer1">
    <path
       style="fill:#e6e6e6;stroke-width:0.337711"
       d="M 91.188656,270.6361 C 82.620567,269.52064 73.129273,263.84309 64.970793,254.95293 52.504555,241.36871 37.998621,215.16659 31.022122,193.63132 25.694224,177.18499 23.660857,165.60331 23.319018,149.75578 22.984119,134.23027 24.438792,122.77131 28.258227,110.84781 34.409071,91.646146 46.86479,75.709598 61.536976,68.269119 c 8.462218,-4.291318 14.637282,-5.73702 24.65294,-5.771727 9.255077,-0.03208 16.270394,1.176249 29.131804,5.017684 10.10916,3.019392 18.51305,4.904756 21.86264,4.904756 3.94438,0 11.40727,-1.80822 21.78238,-5.277774 15.40028,-5.15001 24.05011,-6.653992 33.84353,-5.884523 16.07785,1.263241 27.67166,6.614798 39.38189,18.178199 3.10241,3.063531 7.00201,7.363945 7.56431,8.341824 0.15874,0.276074 -0.49762,1.066016 -1.85741,2.235375 -3.98375,3.425846 -10.46416,9.93809 -13.2425,13.307517 -6.43723,7.80672 -10.61585,16.40534 -12.71898,26.17263 -0.66898,3.10687 -0.76443,4.52876 -0.7707,11.48221 -0.005,6.20444 0.12397,8.6363 0.59372,11.14447 2.4202,12.92246 8.14958,23.94534 17.44015,33.55347 5.04536,5.21779 9.81566,8.53944 15.64586,10.89446 1.44866,0.58517 2.70981,1.13981 2.80252,1.23253 0.21061,0.2106 -2.4592,7.62799 -4.52618,12.5748 -5.31268,12.7147 -15.50119,29.59778 -23.97411,39.7268 -10.55063,12.61284 -20.59861,19.03605 -31.36781,20.05197 -5.04759,0.47619 -11.52817,-0.85658 -23.91747,-4.91872 -4.45779,-1.46161 -9.92871,-3.10065 -12.15761,-3.64234 -12.32143,-2.99447 -21.11408,-2.13906 -34.95315,3.40048 -8.70025,3.48255 -13.93716,5.04862 -18.902981,5.65284 -3.16429,0.38501 -3.632632,0.38431 -6.661163,-0.01 z M 132.45551,62.557134 c 1.22234,-18.949638 7.41947,-34.274109 18.20982,-45.029839 7.53907,-7.514901 16.77398,-12.6350113 29.13258,-16.1519813 6.30363,-1.79386996 5.76967,-1.76780096 6.14521,-0.300021 1.93464,7.560999 -0.8115,21.6750613 -6.35779,32.6765623 -4.37363,8.675449 -10.16723,15.893683 -17.74857,22.112959 -7.93652,6.510641 -12.69774,8.216395 -27.80439,9.961198 l -1.80114,0.208031 z"
       id="path860" />
  </g>
</svg>
