<?xml version="1.0" encoding="UTF-8" standalone="no"?>
<svg
   xmlns:dc="http://purl.org/dc/elements/1.1/"
   xmlns:cc="http://creativecommons.org/ns#"
   xmlns:rdf="http://www.w3.org/1999/02/22-rdf-syntax-ns#"
   xmlns:svg="http://www.w3.org/2000/svg"
   xmlns="http://www.w3.org/2000/svg"
   xmlns:sodipodi="http://sodipodi.sourceforge.net/DTD/sodipodi-0.dtd"
   xmlns:inkscape="http://www.inkscape.org/namespaces/inkscape"
   width="1024"
   height="1024"
   viewBox="0 0 270.93333 270.93334"
   version="1.1"
   id="svg8"
   inkscape:version="1.0.1 (3bc2e813f5, 2020-09-07)"
   sodipodi:docname="gmail.svg">
  <defs
     id="defs2" />
  <sodipodi:namedview
     id="base"
     pagecolor="#242424"
     bordercolor="#666666"
     borderopacity="1.0"
     inkscape:pageopacity="0"
     inkscape:pageshadow="2"
     inkscape:zoom="0.35"
     inkscape:cx="285.3356"
     inkscape:cy="562.41053"
     inkscape:document-units="mm"
     inkscape:current-layer="layer1"
     inkscape:document-rotation="0"
     showgrid="false"
     units="px"
     inkscape:window-width="1920"
     inkscape:window-height="1017"
     inkscape:window-x="-8"
     inkscape:window-y="-8"
     inkscape:window-maximized="1" />
  <metadata
     id="metadata5">
    <rdf:RDF>
      <cc:Work
         rdf:about="">
        <dc:format>image/svg+xml</dc:format>
        <dc:type
           rdf:resource="http://purl.org/dc/dcmitype/StillImage" />
        <dc:title />
      </cc:Work>
    </rdf:RDF>
  </metadata>
  <g
     inkscape:label="Layer 1"
     inkscape:groupmode="layer"
     id="layer1">
    <path
       style="fill:#dddddd;fill-opacity:1;stroke:none;stroke-width:0.527181;opacity:0.999"
       d="M 32.622933,238.22607 V 82.707386 l 75.914207,55.354124 19.50573,14.17273 7.90772,4.88541 7.90773,-4.82424 18.97855,-13.85962 76.44139,-55.728404 V 238.22607 c 8.78547,0 22.53386,2.82359 28.81577,-4.75255 3.1868,-3.84369 2.81514,-8.49396 2.81514,-13.17165 V 195.52432 92.723836 52.65802 c 0,-6.213309 0.64684,-12.836573 -4.75255,-17.1912 -12.65657,-10.207233 -27.75456,6.001127 -37.42201,13.053456 -22.84173,16.663048 -45.52638,33.56927 -68.53365,50.00257 -5.83487,4.167384 -11.56216,8.485004 -17.39701,12.652374 -1.81665,1.2974 -4.4916,4.20374 -6.85336,4.20374 -2.66859,0 -5.85805,-3.55427 -7.90772,-5.03459 -6.33779,-4.57594 -12.62338,-9.22566 -18.97856,-13.777384 C 87.327549,80.999836 65.716247,65.198092 44.220931,49.299244 34.82861,42.352239 25.314607,32.048629 13.117207,32.646238 7.1998447,32.936188 2.3279457,37.394145 1.2385277,43.168744 -1.3962543,57.134846 0.9920147,73.753716 0.9920147,87.979206 v 105.963584 25.8319 c 0,4.79736 -0.367696,9.71755 2.841743,13.69883 6.131635,7.60564 20.1334223,4.75255 28.7891753,4.75255 z"
       id="path909" />
  </g>
</svg>
