<?xml version="1.0" encoding="UTF-8" standalone="no"?>
<svg
   xmlns:dc="http://purl.org/dc/elements/1.1/"
   xmlns:cc="http://creativecommons.org/ns#"
   xmlns:rdf="http://www.w3.org/1999/02/22-rdf-syntax-ns#"
   xmlns:svg="http://www.w3.org/2000/svg"
   xmlns="http://www.w3.org/2000/svg"
   xmlns:sodipodi="http://sodipodi.sourceforge.net/DTD/sodipodi-0.dtd"
   xmlns:inkscape="http://www.inkscape.org/namespaces/inkscape"
   width="1024"
   height="1024"
   viewBox="0 0 270.93333 270.93334"
   version="1.1"
   id="svg8"
   inkscape:version="1.0.1 (3bc2e813f5, 2020-09-07)"
   sodipodi:docname="instagram.svg">
  <defs
     id="defs2" />
  <sodipodi:namedview
     id="base"
     pagecolor="#242424"
     bordercolor="#666666"
     borderopacity="1.0"
     inkscape:pageopacity="0"
     inkscape:pageshadow="2"
     inkscape:zoom="0.35"
     inkscape:cx="400"
     inkscape:cy="560"
     inkscape:document-units="mm"
     inkscape:current-layer="layer1"
     inkscape:document-rotation="0"
     showgrid="false"
     units="px"
     inkscape:window-width="1920"
     inkscape:window-height="1017"
     inkscape:window-x="1912"
     inkscape:window-y="-8"
     inkscape:window-maximized="1" />
  <metadata
     id="metadata5">
    <rdf:RDF>
      <cc:Work
         rdf:about="">
        <dc:format>image/svg+xml</dc:format>
        <dc:type
           rdf:resource="http://purl.org/dc/dcmitype/StillImage" />
        <dc:title />
      </cc:Work>
    </rdf:RDF>
  </metadata>
  <g
     inkscape:label="Layer 1"
     inkscape:groupmode="layer"
     id="layer1">
    <path
       style="fill:#ffa500;stroke-width:0.520324;fill-opacity:1"
       d="m 144.91836,270.84311 c -0.14533,-0.14671 -19.57951,-0.38513 -43.18702,-0.52994 -23.607507,-0.14472 -43.742257,-0.37671 -44.743897,-0.51533 -1.00162,-0.13864 -2.91743,-0.3879 -4.25732,-0.55387 -4.03579,-0.49996 -15.43326,-3.73121 -16.55569,-4.69366 -0.42927,-0.36806 -1.57915,-0.9375 -2.555304,-1.26537 -0.976153,-0.32787 -2.541024,-1.18055 -3.477493,-1.89481 -0.93644,-0.71427 -1.923724,-1.29869 -2.193954,-1.29869 -1.340345,0 -14.147235,-11.86656 -14.147235,-13.10851 0,-0.27185 -0.292687,-0.79762 -0.650409,-1.1684 -1.2489,-1.29438 -2.991882,-3.42392 -2.991882,-3.65537 0,-0.12822 -0.6963479,-1.41435 -1.5474669,-2.85784 -0.851118,-1.44349 -1.409549,-2.62453 -1.240974,-2.62453 0.168537,0 -0.047,-0.53943 -0.478942,-1.19875 -1.018769,-1.55482 -3.303921,-8.73104 -4.671798,-14.67117 -1.05822,-4.5954 -1.082389,-6.0689 -1.29310897,-78.82932 C 0.67469413,55.256061 0.76814713,52.784601 4.7703231,40.253911 8.3755251,28.966287 17.113494,17.550632 27.373912,10.723575 34.799783,5.782571 41.156123,3.345225 51.784193,1.363439 c 5.90013,-1.10016704 6.99443,-1.11851504 78.309017,-1.31204704 48.28529,-0.130974 74.77004,-0.0118 79.68056,0.360416 11.55809,0.87477604 20.22654,2.99652404 27.76664,6.79635904 5.85722,2.951705 8.91545,5.265 15.12342,11.439486 8.49988,8.454039 13.38874,18.429558 15.89075,32.424388 1.10246,6.1664 1.68899,50.798449 1.49897,114.059989 -0.14219,47.3086 -0.26413,49.83961 -2.91957,60.56572 -1.96967,7.95589 -6.6606,16.67111 -12.80221,23.78488 -2.11019,2.44422 -10.99385,10.08849 -11.72418,10.08849 -0.1528,0 -1.76523,0.88966 -3.5831,1.97696 -3.62182,2.16638 -14.40795,6.15199 -17.09385,6.3164 -0.67465,0.0413 -0.67833,0.1125 -0.0271,0.52438 0.58947,0.37293 0.44268,0.55459 -0.67463,0.83502 -0.7854,0.19712 -1.57319,0.2132 -1.75064,0.0358 -0.17738,-0.17738 0.11446,-0.32266 0.64862,-0.32266 0.67072,0 0.80428,-0.16695 0.43161,-0.53964 -0.371,-0.371 -0.97944,-0.37248 -1.94684,-0.004 -2.86604,1.08966 -15.38306,1.57403 -47.41271,1.83475 -12.3057,0.10009 -23.19352,0.33965 -24.19514,0.53224 -1.00162,0.19254 -1.94006,0.23013 -2.08541,0.0834 z m -59.703237,-2.79366 c -0.6439,-0.12409 -1.69756,-0.12409 -2.34148,0 -0.6439,0.12409 -0.11701,0.22548 1.17075,0.22548 1.2878,0 1.81462,-0.10147 1.17073,-0.22548 z m 95.869967,-35.49151 c 20.54983,-2.30767 34.64845,-10.38313 43.66792,-25.01224 5.15072,-8.35425 7.72122,-18.21616 8.59495,-32.97544 0.69588,-11.75478 0.71104,-68.03843 0.0214,-79.378229 -0.64851,-10.6631 -1.17248,-14.05454 -3.17948,-20.57897 -2.89503,-9.41135 -6.97927,-16.2035 -13.36676,-22.22914 -8.16327,-7.70079 -17.39863,-12.13243 -29.59725,-14.20234 -13.74501,-2.33231 -89.702077,-2.35111 -102.921307,-0.0255 -17.94524,3.15707 -30.38704,11.37635 -38.61903,25.51244 -4.00855,6.88353 -6.3051,15.00934 -7.54708,26.7035 -0.89448,8.42212 -0.83916,78.183599 0.0698,88.028279 1.58273,17.14221 6.38275,29.18323 15.13718,37.97223 10.7208,10.76312 22.77439,15.49703 42.4063,16.6546 10.532767,0.62104 78.975867,0.2447 85.333367,-0.46923 z M 94.604463,215.3188 c -13.86236,-0.93185 -21.85505,-3.99826 -28.6534,-10.99287 -4.84213,-4.98193 -7.051,-9.06877 -8.97554,-16.60641 -1.83771,-7.19762 -2.16057,-17.08079 -1.91258,-58.54717 0.23998,-40.126849 0.33757,-42.093369 2.44443,-49.259229 3.30553,-11.24283 11.39951,-19.40403 22.84438,-23.03413 7.06539,-2.24102 10.17952,-2.41245 48.700797,-2.68103 50.09664,-0.34926 57.71705,0.21686 67.64231,5.02502 9.75369,4.72505 15.86054,13.41344 18.26782,25.99012 1.22398,6.39467 1.7561,21.765769 1.7399,50.260379 -0.0248,43.62872 -0.74196,51.61553 -5.47836,61.01372 -1.99362,3.9558 -3.14832,5.4958 -6.44929,8.60111 -7.04284,6.62537 -14.30988,9.27172 -28.11261,10.23734 -8.54351,0.5977 -73.14477,0.59231 -82.057857,-0.006 z m 51.739377,-31.18838 c 17.49295,-4.19382 30.51345,-15.67582 36.77694,-32.43138 3.18571,-8.52213 3.73691,-20.11183 1.39034,-29.23369 -1.33576,-5.19253 -5.39265,-13.49937 -8.76699,-17.95124 C 164.8554,90.148311 145.7319,82.174301 128.79239,84.936441 c -17.23485,2.81029 -30.575907,12.48333 -38.163937,27.671049 -14.10768,28.23699 1.66729,62.99971 32.180187,70.91429 6.01628,1.56053 5.66493,1.51703 12.74798,1.57878 4.8397,0.0423 7.6001,-0.20604 10.78722,-0.97014 z m -18.07179,-16.72555 c -13.92452,-3.78557 -23.73072,-14.70356 -25.43557,-28.31942 -1.5417,-12.31285 4.20318,-24.92473 14.39339,-31.59822 10.05914,-6.58762 22.60884,-7.37404 33.34598,-2.08958 7.43328,3.6584 14.47999,12.07322 17.00311,20.3042 1.95689,6.38387 1.30558,16.47945 -1.44892,22.45872 -4.36403,9.47311 -13.05448,16.73127 -22.77643,19.02261 -3.72058,0.8769 -12.21235,1.00172 -15.08156,0.22169 z M 193.0683,92.822901 c 7.32399,-3.00976 8.89765,-14.08849 2.7388,-19.28155 -6.06764,-5.11615 -14.54246,-3.18143 -18.08072,4.12768 -3.76455,7.77652 3.09665,17.21815 11.68391,16.07813 1.14474,-0.15202 2.79082,-0.56787 3.65801,-0.92426 z m 52.53715,165.707559 c 0.1768,-0.28618 0.42484,-0.52031 0.55104,-0.52031 0.12625,0 0.22946,0.23413 0.22946,0.52031 0,0.2862 -0.24797,0.52033 -0.55104,0.52033 -0.30307,0 -0.40631,-0.23413 -0.22946,-0.52033 z"
       id="path849" />
  </g>
</svg>
