<?xml version="1.0" encoding="UTF-8" standalone="no"?>
<svg
   xmlns:dc="http://purl.org/dc/elements/1.1/"
   xmlns:cc="http://creativecommons.org/ns#"
   xmlns:rdf="http://www.w3.org/1999/02/22-rdf-syntax-ns#"
   xmlns:svg="http://www.w3.org/2000/svg"
   xmlns="http://www.w3.org/2000/svg"
   xmlns:sodipodi="http://sodipodi.sourceforge.net/DTD/sodipodi-0.dtd"
   xmlns:inkscape="http://www.inkscape.org/namespaces/inkscape"
   width="1024"
   height="1024"
   viewBox="0 0 270.93333 270.93334"
   version="1.1"
   id="svg8"
   inkscape:version="1.0.1 (3bc2e813f5, 2020-09-07)"
   sodipodi:docname="telegram.svg">
  <defs
     id="defs2" />
  <sodipodi:namedview
     id="base"
     pagecolor="#242424"
     bordercolor="#666666"
     borderopacity="1.0"
     inkscape:pageopacity="0"
     inkscape:pageshadow="2"
     inkscape:zoom="0.24748737"
     inkscape:cx="-483.31721"
     inkscape:cy="454.26291"
     inkscape:document-units="mm"
     inkscape:current-layer="layer1"
     inkscape:document-rotation="0"
     showgrid="false"
     units="px"
     inkscape:window-width="1920"
     inkscape:window-height="1017"
     inkscape:window-x="1912"
     inkscape:window-y="-8"
     inkscape:window-maximized="1" />
  <metadata
     id="metadata5">
    <rdf:RDF>
      <cc:Work
         rdf:about="">
        <dc:format>image/svg+xml</dc:format>
        <dc:type
           rdf:resource="http://purl.org/dc/dcmitype/StillImage" />
        <dc:title />
      </cc:Work>
    </rdf:RDF>
  </metadata>
  <g
     inkscape:label="Layer 1"
     inkscape:groupmode="layer"
     id="layer1">
    <path
       id="path834"
       style="fill:#ffa500;stroke-width:1.18164;fill-opacity:1"
       d="M 261.52635,18.434327 151.24114,61.748944 40.953639,105.06588 l -10.210133,3.91188 -10.210146,3.91189 -8.873871,3.69264 -8.8738598,3.69494 -1.391669,3.36262 L -8.3333337e-7,127.00245 1.9247782,130.72047 l 1.922487,3.71804 3.588781,2.18326 3.5864658,2.18096 17.920831,5.97977 17.918514,5.97746 12.061072,3.63955 12.061073,3.63724 5.490495,17.39464 5.492785,17.39462 6.94678,21.745 6.94677,21.74503 1.97556,2.18326 1.975569,2.18327 h 2.000939 2.00326 l 4.80504,-3.24952 4.80504,-3.24951 16.10219,-14.57669 16.10452,-14.57669 1.42398,1.09164 1.42628,1.09164 20.67875,15.99142 20.67877,15.99373 9.79471,6.64906 9.79472,6.65136 h 4.79582 4.79812 l 3.73649,-1.77246 3.73417,-1.77247 1.4009,-2.24328 1.40088,-2.24559 18.41473,-94.9446 18.41471,-94.946908 2.40483,-12.114161 2.40252,-12.114152 -0.37157,-3.838042 -0.36926,-3.838024 -4.33194,-2.118651 z" />
  </g>
</svg>
