<?xml version="1.0" encoding="UTF-8" standalone="no"?>
<svg
   xmlns:dc="http://purl.org/dc/elements/1.1/"
   xmlns:cc="http://creativecommons.org/ns#"
   xmlns:rdf="http://www.w3.org/1999/02/22-rdf-syntax-ns#"
   xmlns:svg="http://www.w3.org/2000/svg"
   xmlns="http://www.w3.org/2000/svg"
   xmlns:sodipodi="http://sodipodi.sourceforge.net/DTD/sodipodi-0.dtd"
   xmlns:inkscape="http://www.inkscape.org/namespaces/inkscape"
   width="1024"
   height="1024"
   viewBox="0 0 270.93333 270.93334"
   version="1.1"
   id="svg8"
   inkscape:version="1.0.1 (3bc2e813f5, 2020-09-07)"
   sodipodi:docname="windows.svg">
  <defs
     id="defs2" />
  <sodipodi:namedview
     id="base"
     pagecolor="#ffffff"
     bordercolor="#666666"
     borderopacity="1.0"
     inkscape:pageopacity="0.0"
     inkscape:pageshadow="2"
     inkscape:zoom="0.49497475"
     inkscape:cx="478.0302"
     inkscape:cy="480.641"
     inkscape:document-units="mm"
     inkscape:current-layer="layer1"
     inkscape:document-rotation="0"
     showgrid="false"
     units="px"
     inkscape:window-width="1920"
     inkscape:window-height="1017"
     inkscape:window-x="1912"
     inkscape:window-y="-8"
     inkscape:window-maximized="1" />
  <metadata
     id="metadata5">
    <rdf:RDF>
      <cc:Work
         rdf:about="">
        <dc:format>image/svg+xml</dc:format>
        <dc:type
           rdf:resource="http://purl.org/dc/dcmitype/StillImage" />
        <dc:title />
      </cc:Work>
    </rdf:RDF>
  </metadata>
  <g
     inkscape:label="Layer 1"
     inkscape:groupmode="layer"
     id="layer1">
    <path
       style="fill:#000000;stroke-width:0.265737"
       d="m 197.024,260.67568 c -40.0977,-5.67398 -72.93762,-10.35417 -72.97761,-10.40043 -0.04,-0.0463 -0.15865,-24.26947 -0.26369,-53.82937 l -0.19101,-53.74526 40.21725,1.3e-4 c 22.11949,5e-5 55.19508,0.0796 73.50131,0.1768 l 33.28408,0.1767 -0.067,63.91004 c -0.0444,42.3357 -0.15668,63.92988 -0.3327,63.96888 -0.14616,0.0323 -33.07295,-4.58352 -73.17063,-10.25749 z M 55.612236,241.13817 c -30.034892,-4.14724 -54.75837183,-7.54384 -54.94106463,-7.54801 -0.2644379,-0.006 -0.3321719,-9.44087 -0.3321719,-46.2681 v -46.26053 l 8.70287343,0.15379 c 4.7865861,0.0845 21.9166361,0.21465 38.0667851,0.28903 16.150147,0.0744 37.106806,0.21222 46.570366,0.30629 l 17.206446,0.17101 v 53.37397 c 0,42.53561 -0.0675,53.36879 -0.33217,53.34847 -0.18269,-0.0141 -24.906171,-3.41868 -54.941064,-7.56592 z M 0.33899947,84.415868 V 38.276213 l 0.5979052,-0.130089 C 1.265752,38.074573 25.809863,34.722367 55.47937,30.696772 85.148865,26.671179 109.75276,23.309868 110.15469,23.22719 l 0.73078,-0.150324 v 53.394631 53.394633 l -28.367393,0.17276 c -15.602069,0.095 -40.475026,0.25013 -55.273236,0.3447 L 0.33899947,130.55554 Z M 123.90657,75.52996 V 21.301168 l 0.73079,-0.14962 C 126.07556,20.857086 269.41007,-6.7909741e-7 269.99544,-6.7909741e-7 h 0.59779 V 64.183753 c 0,51.113627 -0.0676,64.205247 -0.33216,64.289227 -0.18271,0.058 -25.74324,0.2931 -56.80123,0.52245 -31.05798,0.22937 -63.913,0.49495 -73.01116,0.59018 l -16.54211,0.17316 z"
       id="path22" />
  </g>
</svg>
